<?xml version="1.0" encoding="utf-8"?>
<!-- Generator: Adobe Illustrator 22.1.0, SVG Export Plug-In . SVG Version: 6.00 Build 0)  -->
<svg version="1.1" id="Layer_1" xmlns="http://www.w3.org/2000/svg" xmlns:xlink="http://www.w3.org/1999/xlink" x="0px" y="0px"
	 viewBox="0 0 30 30" style="enable-background:new 0 0 30 30;" xml:space="preserve">
<style type="text/css">
	.st0{fill-rule:evenodd;clip-rule:evenodd;}
</style>
<title></title>
<path class="st0" d="M11.2,15.1v14c0,0.2,0.2,0.4,0.4,0.4h5.2c0.2,0,0.4-0.2,0.4-0.4V14.9h3.8c0.2,0,0.3-0.1,0.4-0.3l0.4-4.3
	c0-0.2-0.2-0.4-0.4-0.4h-4.1v-3c0-0.7,0.6-1.3,1.3-1.3h2.9c0.2,0,0.4-0.2,0.4-0.4V0.9c0-0.2-0.2-0.4-0.4-0.4h-4.9
	c-2.9,0-5.2,2.3-5.2,5.2v4.1H8.6c-0.2,0-0.4,0.2-0.4,0.4v4.3c0,0.2,0.2,0.4,0.4,0.4h2.6V15.1z"/>
</svg>
