<?xml version="1.0" encoding="utf-8"?>
<!-- Generator: Adobe Illustrator 22.1.0, SVG Export Plug-In . SVG Version: 6.00 Build 0)  -->
<svg version="1.1" id="Layer_1" xmlns="http://www.w3.org/2000/svg" xmlns:xlink="http://www.w3.org/1999/xlink" x="0px" y="0px"
	 viewBox="0 0 30 30" style="enable-background:new 0 0 30 30;" xml:space="preserve">
<title></title>
<g>
	<path d="M21.6,0.5H8.4c-4.3,0-7.9,3.6-7.9,7.9v13.2c0,4.3,3.6,7.9,7.9,7.9h13.2c4.3,0,7.9-3.6,7.9-7.9V8.4
		C29.5,4.1,25.9,0.5,21.6,0.5z M15,22.9c-4.3,0-7.9-3.6-7.9-7.9s3.6-7.9,7.9-7.9s7.9,3.6,7.9,7.9S19.3,22.9,15,22.9z M22.9,7.1
		c-0.8,0-1.3-0.5-1.3-1.3s0.5-1.3,1.3-1.3c0.8,0,1.3,0.5,1.3,1.3S23.7,7.1,22.9,7.1z"/>
	<circle cx="15" cy="15" r="6.6"/>
</g>
</svg>
