<?xml version="1.0" encoding="utf-8"?>
<!-- Generator: Adobe Illustrator 22.1.0, SVG Export Plug-In . SVG Version: 6.00 Build 0)  -->
<svg version="1.1" id="Layer_1" xmlns="http://www.w3.org/2000/svg" xmlns:xlink="http://www.w3.org/1999/xlink" x="0px" y="0px"
	 viewBox="0 0 487.3 64" style="enable-background:new 0 0 487.3 64;" xml:space="preserve">
<style type="text/css">
	.st0{fill:none;stroke:#000000;stroke-width:0.9657;stroke-miterlimit:10;}
</style>
<g>
	<path class="st0" d="M49.1,1.7v10.6H31.3v50.2H20.6V12.3H2.8V1.7C2.8,1.7,49.1,1.7,49.1,1.7z"/>
	<path class="st0" d="M134.2,1.7v60.9h-10.6V1.7H134.2z"/>
	<path class="st0" d="M180,1.5c13.7,0,19.6,8.5,19.6,18.3c0,9.2-5.3,19.1-19.6,19.1H161c-1,0-1.5,0.5-1.5,1.5v22h-10.6v-24
		c0-6.9,2.9-9.7,9.6-9.7h21.9c6.1,0,8.5-4.2,8.5-8.4c0-4.4-2.6-8.1-8.4-8.1h-31.7V1.6L180,1.5L180,1.5z"/>
	<path class="st0" d="M244.8,62.4h-10.6V13.7c0-7.9,4.5-13.2,14-13.2c8.5,0,12.3,4.3,14.8,11.3l17.8,38.8c0.7,1.4,1.9,2.5,3.9,2.5
		c2.2,0,3.6-1.4,3.6-3.5V1.5h10.7v48.7c0,8-4.6,13.3-14,13.3c-8.5,0-12.4-4.3-14.9-11.3l-17.8-38.9c-0.8-1.8-1.9-2.6-3.8-2.6
		c-2.4,0-3.7,1.4-3.7,3.5L244.8,62.4L244.8,62.4z"/>
	<path class="st0" d="M347.1,1.5c17.7,0,27.5,10.1,27.5,30.6c0,20.4-9.8,30.3-27.5,30.3h-8.3c-17.8,0-27.5-9.9-27.5-30.3
		c0-20.5,9.8-30.6,27.5-30.6C338.8,1.5,347.1,1.5,347.1,1.5z M338.8,12.2c-11.7,0-16.9,6-16.9,20c0,13.9,5,19.7,16.9,19.7h8.3
		c11.7,0,16.8-5.8,16.8-19.8c0-13.9-5-19.9-16.8-19.9C347.1,12.2,338.8,12.2,338.8,12.2z"/>
	<path class="st0" d="M426.9,1.5v10.6h-17.8v50.2h-10.7V12.1h-17.8V1.5C380.6,1.5,426.9,1.5,426.9,1.5z"/>
	<path class="st0" d="M485.6,1.5v10.6h-30.5c-6.4,0-9.2,3-9.2,7.6c0,4.9,3.2,7.2,9.3,7.2h29.9v9.7h-30.2c-6.2,0-9.3,2.4-9.3,7.4
		c0,4.8,3,7.6,9.2,7.6h30.9v10.6h-30.9c-14.5,0-20.3-7.1-20.3-16.6c0-7,3.2-11.7,8.8-14c-5.7-2.3-8.6-7-8.6-13.7
		c0-9.8,6.1-16.6,20.4-16.6L485.6,1.5L485.6,1.5z"/>
	<path class="st0" d="M79.1,39h9.8h1.3c14.3,0,19.6-9.9,19.6-19.1c0-9.8-5.9-18.3-19.6-18.3H59v10.6h31.7c5.8,0,8.4,3.7,8.4,8.1
		c0,4.2-2.4,8.4-8.5,8.4H89H68.6h-4.5H64c-0.1,0-0.2,0-0.3,0c-0.1,0-0.2,0-0.3,0c-0.1,0-0.2,0-0.2,0c-0.1,0-0.2,0-0.3,0.1
		c-0.1,0-0.1,0-0.2,0.1c-0.1,0-0.2,0.1-0.3,0.1c-0.1,0-0.1,0-0.2,0.1c-0.1,0-0.2,0.1-0.3,0.1c-0.1,0-0.1,0.1-0.2,0.1
		s-0.2,0.1-0.2,0.1c-0.1,0-0.1,0.1-0.2,0.1c-0.1,0-0.1,0.1-0.2,0.1c-0.1,0.1-0.1,0.1-0.2,0.2c-0.1,0-0.1,0.1-0.2,0.1
		c-0.1,0.1-0.1,0.1-0.2,0.2c-0.1,0.1-0.1,0.1-0.2,0.2c-0.1,0.1-0.1,0.1-0.2,0.2c-0.1,0.1-0.1,0.2-0.2,0.2c0,0,0,0-0.1,0.1
		c0,0,0,0.1-0.1,0.1c-0.1,0.1-0.1,0.2-0.2,0.3c0,0.1-0.1,0.1-0.1,0.2c-0.1,0.1-0.1,0.2-0.1,0.3s-0.1,0.1-0.1,0.2
		c0,0.1-0.1,0.2-0.1,0.3c0,0,0,0.1,0,0.1c0,0.1-0.1,0.2-0.1,0.3c0,0.1,0,0.2-0.1,0.2c0,0.1,0,0.2-0.1,0.2c0,0.1,0,0.2,0,0.3
		s0,0.2,0,0.2c0,0.1,0,0.2,0,0.3v0.1v0.1c0,0.1,0,0.2,0,0.3s0,0.2,0,0.3c0,0.1,0,0.2,0,0.2c0,0.1,0,0.2,0.1,0.3c0,0.1,0,0.1,0.1,0.2
		c0,0.1,0.1,0.2,0.1,0.3c0,0.1,0,0.1,0.1,0.2c0,0.1,0.1,0.2,0.1,0.3c0,0.1,0.1,0.1,0.1,0.2c0,0.1,0.1,0.2,0.1,0.2
		c0,0.1,0.1,0.2,0.1,0.2c0,0.1,0.1,0.1,0.1,0.2c0.1,0.1,0.1,0.2,0.2,0.2c0,0.1,0.1,0.1,0.1,0.2c0.1,0.1,0.1,0.1,0.2,0.2
		c0.1,0.1,0.1,0.1,0.2,0.2c0.1,0.1,0.1,0.1,0.2,0.2s0.1,0.1,0.2,0.2c0,0,0,0,0.1,0.1l32.4,24.6h16.8L79.1,39z"/>
</g>
</svg>
