<?xml version="1.0" encoding="utf-8"?>
<!-- Generator: Adobe Illustrator 22.1.0, SVG Export Plug-In . SVG Version: 6.00 Build 0)  -->
<svg version="1.1" id="Layer_1" xmlns="http://www.w3.org/2000/svg" xmlns:xlink="http://www.w3.org/1999/xlink" x="0px" y="0px"
	 viewBox="0 0 500 64" style="enable-background:new 0 0 500 64;" xml:space="preserve">
<g>
	<path d="M47.5,1.3v11H29.1v52H18v-52H-0.4v-11H47.5z"/>
	<path d="M135.6,1.3v63.1h-11V1.3H135.6z"/>
	<path d="M183,1.1c14.2,0,20.3,8.8,20.3,18.9c0,9.5-5.5,19.8-20.3,19.8h-19.6c-1,0-1.6,0.5-1.6,1.6v22.8h-11V39.3c0-7.1,3-10,9.9-10
		h22.7c6.3,0,8.8-4.3,8.8-8.7c0-4.6-2.7-8.4-8.7-8.4h-32.8v-11H183z"/>
	<path d="M250.2,64.2h-11V13.8c0-8.2,4.7-13.7,14.5-13.7c8.8,0,12.7,4.5,15.3,11.7L287.4,52c0.7,1.5,2,2.6,4,2.6
		c2.3,0,3.7-1.4,3.7-3.6V1.1h11.1v50.4c0,8.3-4.8,13.8-14.5,13.8c-8.8,0-12.8-4.5-15.4-11.7l-18.4-40.3c-0.8-1.9-2-2.7-3.9-2.7
		c-2.5,0-3.8,1.4-3.8,3.6V64.2z"/>
	<path d="M356.1,1.1c18.3,0,28.5,10.5,28.5,31.7c0,21.1-10.1,31.4-28.5,31.4h-8.6c-18.4,0-28.5-10.3-28.5-31.4
		c0-21.2,10.2-31.7,28.5-31.7H356.1z M347.5,12.2c-12.1,0-17.5,6.2-17.5,20.7c0,14.4,5.2,20.4,17.5,20.4h8.6
		c12.1,0,17.4-6,17.4-20.5c0-14.4-5.2-20.6-17.4-20.6H347.5z"/>
	<path d="M438.7,1.1v11h-18.4v52h-11.1v-52h-18.4v-11H438.7z"/>
	<path d="M499.5,1.1v11h-31.6c-6.6,0-9.5,3.1-9.5,7.9c0,5.1,3.3,7.5,9.6,7.5h31v10h-31.3c-6.4,0-9.6,2.5-9.6,7.7
		c0,5,3.1,7.9,9.5,7.9h32v11h-32c-15,0-21-7.4-21-17.2c0-7.2,3.3-12.1,9.1-14.5c-5.9-2.4-8.9-7.3-8.9-14.2
		c0-10.1,6.3-17.2,21.1-17.2H499.5z"/>
	<path d="M78.6,40h10.1H90c14.8,0,20.3-10.3,20.3-19.8c0-10.1-6.1-18.9-20.3-18.9H57.7v11h32.8c6,0,8.7,3.8,8.7,8.4
		c0,4.4-2.5,8.7-8.8,8.7h-1.6H67.7H63c0,0-0.1,0-0.1,0c-0.1,0-0.2,0-0.3,0c-0.1,0-0.2,0-0.3,0c-0.1,0-0.2,0-0.2,0
		c-0.1,0-0.2,0-0.3,0.1c-0.1,0-0.1,0-0.2,0.1c-0.1,0-0.2,0.1-0.3,0.1c-0.1,0-0.1,0-0.2,0.1c-0.1,0-0.2,0.1-0.3,0.1
		c-0.1,0-0.1,0.1-0.2,0.1c-0.1,0-0.2,0.1-0.2,0.1c-0.1,0-0.1,0.1-0.2,0.1c-0.1,0-0.1,0.1-0.2,0.1c-0.1,0.1-0.1,0.1-0.2,0.2
		c-0.1,0-0.1,0.1-0.2,0.1c-0.1,0.1-0.1,0.1-0.2,0.2c-0.1,0.1-0.1,0.1-0.2,0.2c-0.1,0.1-0.1,0.1-0.2,0.2c-0.1,0.1-0.1,0.2-0.2,0.2
		c0,0,0,0-0.1,0.1c0,0,0,0.1-0.1,0.1c-0.1,0.1-0.1,0.2-0.2,0.3c0,0.1-0.1,0.1-0.1,0.2c-0.1,0.1-0.1,0.2-0.1,0.3
		c0,0.1-0.1,0.1-0.1,0.2c0,0.1-0.1,0.2-0.1,0.3C58,32.9,58,33,58,33c0,0.1-0.1,0.2-0.1,0.3c0,0.1,0,0.2-0.1,0.2c0,0.1,0,0.2-0.1,0.2
		c0,0.1,0,0.2,0,0.3c0,0.1,0,0.2,0,0.2c0,0.1,0,0.2,0,0.3c0,0,0,0.1,0,0.1c0,0,0,0.1,0,0.1c0,0.1,0,0.2,0,0.3c0,0.1,0,0.2,0,0.3
		c0,0.1,0,0.2,0,0.2c0,0.1,0,0.2,0.1,0.3c0,0.1,0,0.1,0.1,0.2c0,0.1,0.1,0.2,0.1,0.3c0,0.1,0,0.1,0.1,0.2c0,0.1,0.1,0.2,0.1,0.3
		c0,0.1,0.1,0.1,0.1,0.2c0,0.1,0.1,0.2,0.1,0.2c0,0.1,0.1,0.2,0.1,0.2c0,0.1,0.1,0.1,0.1,0.2c0.1,0.1,0.1,0.2,0.2,0.2
		c0,0.1,0.1,0.1,0.1,0.2c0.1,0.1,0.1,0.1,0.2,0.2c0.1,0.1,0.1,0.1,0.2,0.2c0.1,0.1,0.1,0.1,0.2,0.2c0.1,0.1,0.1,0.1,0.2,0.2
		c0,0,0,0,0.1,0.1l33.5,25.5h17.4L78.6,40z"/>
</g>
</svg>
