<?xml version="1.0" encoding="utf-8"?>
<!-- Generator: Adobe Illustrator 22.1.0, SVG Export Plug-In . SVG Version: 6.00 Build 0)  -->
<svg version="1.1" id="Layer_1" xmlns="http://www.w3.org/2000/svg" xmlns:xlink="http://www.w3.org/1999/xlink" x="0px" y="0px"
	 viewBox="0 0 595 853" style="enable-background:new 0 0 595 853;" xml:space="preserve">
<style type="text/css">
	.st0{fill:#FFFFFF;stroke:#62C6C4;stroke-width:1.8519;stroke-linecap:round;stroke-linejoin:round;stroke-miterlimit:10;}
</style>
<path class="st0" d="M362.1,79c-0.9-2.7-2.5-5-4-7.4c-4.6-7.8-7-16.8-11.7-24.6c-1.5-2.6-3.3-5-4.2-7.9c-0.6-2-0.7-4.2-1.5-6.2
	c-0.9-2.4-2.8-4.3-3.8-6.6c-1.5-3.3-1.2-7.3-3-10.5c-1.3-2.3-3.4-4-4.2-6.4c-0.3-1-0.5-2.2-1.3-2.9c-0.9-0.8-2.3-0.6-3.3,0
	c-2.8,1.6-3.4,5.3-3.3,8.5c0.2,3.2,0.9,6.5-0.2,9.5c-2,5.2-2,10.4-5.2,14.9c-3.3,4.5-7.6,8.1-12,11.5c-1.6,1.3-3.3,2.5-5.2,3.4
	c-2.5,1.2-5.4,1.8-7.7,3.3c-1,0.7-1.9,1.6-3,2.1c-1.3,0.7-2.8,0.9-4.2,1.1c-4.4,0.4-8.8,0.3-13.2-0.5c-2.7-0.5-5.5-1.2-8.2-0.8
	c-2.1,0.3-4.1,1.2-6.1,1.8c-2,0.6-4.3,0.9-6.3,0.1c-1-0.5-1.9-1.3-2.9-1.8c-2.3-1.2-5.1-1-7.7-0.8c-2,0.2-4,0.3-6.1,0.5
	c-5.5-0.6-10.5-0.7-16-1.2c-2-0.2-4.1-0.4-6,0.5c-2.3,1.1-4.2,3.9-6.7,3.5c-0.8-0.2-1.6-0.7-2.3-1.1c-5.4-3.5-12.4-4.3-18.5-2.3
	c-1.2,0.4-2.4,0.9-3.7,1.1c-3.9,0.5-8.1-2.5-11.7-0.9c-2.1,0.9-3.5,3.1-5.7,3.5c-1.9,0.4-3.8-0.6-5.7-0.9c-3.7-0.4-7,2.1-9.8,4.5
	c-4.5,3.8-9.1,7.7-13.6,11.5c-1.4,1.2-3.2,2.5-4.3,4c-0.2,0.3-0.4,0.6-0.5,1c-0.1,0.5,0,1.1,0.1,1.6c0.4,2.1,0.5,4.3,0.3,6.5
	c-2.2,1.7-4.2,2.8-6.3,4.5c-2,1.6-4.1,3.3-5.3,5.5c-1.2,2-1.6,4.4-2.3,6.6c-1.7,5.1-5.1,9.7-9.8,12.5c-4.7,2.8-10.4,3.6-15.9,4.4
	c-0.1,4.8,0,9.8-0.1,14.6c0,1,0,2.1,0.6,2.8c0.9,1.1,2.9,1.7,2.5,3c-0.4,1-1.8,0.9-2.6,1.5c-0.8,0.6-0.9,1.8-0.9,2.8
	c-0.1,7.2-0.1,14.4-0.2,21.5c0,0.9,0,1.8,0.5,2.5c0.6,0.8,1.6,1.1,2.5,1.4c3.3,1.2,6.1,3.8,7.6,6.9c-3.4-0.4-6.2-2.6-8.9-4.7
	c-1.2-0.9-2.4-1.9-3.1-3.2c-0.6-1.3-0.6-2.7-0.7-4.1c-0.1-3.6-0.6-7.2-1.3-10.7c-0.2-1-0.8-2.3-1.9-2.1c-0.6,0.1-1,0.7-1.4,1.1
	c-2.4,2.7-6.7,1.6-10.4,1.2c-0.7-0.1-1.4-0.1-1.9,0.3c-0.7,0.5-0.9,1.5-1,2.4c-0.7,7.1-1.4,14.6,1.7,21.1c0.9,2,2.2,3.8,3.1,5.7
	c3.1,6.7,2.1,14.5,2.3,21.9c0,0.8,0.1,1.7,0.4,2.4c1.2,2.3,5.5,2.8,5.2,5.4c-0.1,0.8-0.6,1.4-0.9,2.1c-0.8,1.4-1,3.2-0.2,4.6
	c0.8,1.4,2.8,2.1,4.1,1.2c0.9-0.6,1.4-1.8,2.3-2.3c1-0.6,2.2-0.3,3.3,0c1.3,0.3,2.9,1,3,2.4c0,1.2-1.1,2-2.2,2.4
	c-1.1,0.4-2.3,0.7-3,1.7c-1,1.5,0.2,3.6,1.8,4.5c1.6,0.8,3.5,0.8,5.3,1.2c1.9,0.4,3.7,1.3,5.2,2.5c0.4,0.3,0.8,0.7,0.8,1.2
	c0.2,1.3-1.4,1.9-2.7,2.1c-2.2,0.2-4.3,0.5-6.5,0.7c-1.4,0.1-3.4-0.4-3.1-1.7c-0.7-1.3-2.8-0.1-3.6,1.1c-0.8,1.2-0.7,2.8-0.6,4.3
	c0.1,1.5,0.1,3.1-0.9,4.2c-2.4-0.5-0.2-5.4-2.5-6.4c-0.9-0.4-2,0.2-2.9-0.2c-0.9-0.4-1.2-1.5-1.8-2.3c-1.2-1.5-3.7-1.3-5,0
	c-1.4,1.3-1.7,3.4-1.4,5.3c0.2,1.3,0.6,2.6,0,3.7c-0.4,0.7-1.1,1.1-1.5,1.7c-0.9,1.2-0.6,3.2,0.6,4c1.2,0.9,3.2,0.5,4-0.7
	c0.2-0.4,0.4-0.8,0.8-1c0.8-0.4,1.8,0.5,2.7,0.3c1.2-0.2,1.3-2,2.3-2.7c1.2-0.8,2.8,0.4,3.6,1.7c1.3,2.2,2.2,4.7,2.3,7.2
	c0.1,1.5,0.6,3.6,2.1,3.4c1.2-0.2,2.3-1.9,3.2-1.1c0.8,0.7-0.2,1.8-0.9,2.5c-1.6,1.7-1.7,4.5-0.3,6.4c0.3,0.3,0.6,0.6,1,0.7
	c0.7,0.1,1.3-0.5,1.7-1.1c1.6-2.2,2.5-4.7,4-7c1.5-2.2,3.9-4.1,6.6-3.9c2.7,0.2,4.9,3.5,3.3,5.7c-1.2,1.7-3.9,1.8-5.1,3.5
	c-1.9,2.8,1.7,6.9,0,9.8c-0.9,1.7-3.3,2.6-3.2,4.5c0.1,2.1,2.9,2.5,5,2.3c2-0.3,4.8-0.3,5.4,1.6c-1.4,0.9-3,1.6-4.6,1.9
	c-0.9,1,0.6,2.4,2,2.4c1.3,0,2.7-0.6,3.9,0c1.4,0.7,1.5,2.6,2.1,4.1c0.7,1.6,2.1,2.8,3.4,3.9c2,1.7,4.2,3.4,6.8,4
	c2.6,0.6,5.7-0.3,6.8-2.7c0.9-2,0.6-5.1,2.8-5.8c1.5,3.5,0.3,8-2.9,10.1c-2.5,1.7-5.8,1.9-8.7,2.8c-3,0.9-6.1,3-6.1,6
	c0,1,0.3,1.9,0.2,2.9c-0.1,1-0.8,2-1.7,1.9c-1.3,0-1.7-1.8-1.7-3c-0.1-4.8-0.1-9.7-1.7-14.2c-1.7-4.5-5.5-8.5-10.3-8.9
	c-1.9-0.1-4.2,0.2-5.5-1.2c-0.6-0.6-0.9-1.6-1.7-1.8c-0.8-0.3-1.7,0.3-2.5,0.8c-2.7,1.5-6.5,0.9-8.6-1.4c-1.4-1.5-2.3-3.8-4.3-4.4
	c-1.5-0.5-3.3,0.2-4.7-0.6c-1.4-0.7-1.8-2.5-2.9-3.6c-2.2-2.3-6.5-0.9-7.8,2c-1.3,2.9-0.2,6.4,1.8,8.9c0.6,0.7,1.2,1.4,1.5,2.2
	c0.3,0.9,0.1,2-0.8,2.4c-1.6,0.7-2.6-1.6-3.3-3.2c-1.2-2.7-4-4.3-6.8-4.9c-2.8-0.6-5.8-0.2-8.6,0.3c-1.2,0.2-2.4,0.4-3.3,1.1
	s-1.6,1.9-1.2,3c0.6,1.7,3,1.9,4.3,3.1c1.6,1.6,1.2,4.7,3,6.1c1.5,1.2,3.8,0.6,5.5,1.4c2.4,1.2,2.1,5.4-0.4,6.3
	c-1.2,0.4-2.5,0.2-3.7,0.3c-1.2,0.1-2.7,0.7-2.9,1.9c-0.1,0.7,0.2,1.4,0.1,2.1c-0.2,2.8-5.2,2.6-6.2,5.3c-0.3,0.9-0.2,2.2-1.1,2.7
	c-0.4,0.2-0.8,0.2-1.2,0.1c-2.1-0.7-2.3-3.7-1.4-5.8c0.9-2,2.6-3.8,2.9-6c0.2-1.6-0.4-3.1-0.9-4.7c-1.1-3.6-1.7-7.3-1.8-11.1
	c-1.4-0.8-2.5,1.3-2.7,2.9c-0.4,3.6-0.8,7.2-1.2,10.8c-0.2,1.4-0.3,2.8-1,4c-0.7,1.2-2,2.1-3.4,1.9c-2.8-0.5-2.7-4.6-4.3-7
	c-0.3-0.4-0.6-0.7-1-0.8c-1-0.1-1.4,1.2-1.5,2.2c-0.2,2.9-0.4,5.8-0.6,8.7c0,0.7-0.1,1.4,0.2,2c0.5,1.2,2.2,2,1.8,3.3
	c-0.4,1.5-2.7,0.9-3.7-0.2c-1-1.1-2.3-2.7-3.7-2.2c-1.6,0.6-1.3,2.8-1.1,4.4c0.2,1.6-0.7,4-2.2,3.4c-1.2,0-1.8,0.8-2.3,1.9
	c-0.5,1.1-0.3,2.5,0.5,3.4c0.3,0.3,0.7,0.6,0.9,1c0.6,1-0.1,2.2-0.6,3.2c-0.5,1-0.9,2.4-0.1,3.2c1.1,1,2.8-0.4,3.2-1.8
	c0.4-1.4,0.4-3.1,1.5-4.1c1.4-1.2,3.7-0.4,5.2,0.7c1.3,1,2.5,2.6,1.9,4.2c-1.1,2.6-6,1.3-7.2,3.9c-0.8,1.8,1.4,3.8,3.4,3.6
	c2-0.2,3.5-1.7,4.9-3.1c1.4-1.4,2.8-2.9,4.2-4.3c0.6-0.6,1.3-1.2,2-1c0.8,0.2,1.1,1.3,0.9,2.2c-0.2,1.1-0.7,2.2-0.9,3.4s0,2.5,1,3.1
	c0.5,0.3,1,0.3,1.6,0.5c2.2,0.6,3.6,3.2,3.1,5.4c-0.3,1.3-1.1,2.4-1.7,3.5c-0.6,1.2-0.8,2.7-0.1,3.7c0.9,1.2,2.6,1.2,3.8,2.1
	c1.9,1.4,1.7,4.2,1.6,6.6c-0.3,6,1.3,11.9,2.8,17.7c0.4,1.6,0.9,3.3,2,4.5c2.1,2.3,5.6,2.4,8.7,2.3c0.4,0,0.8,0,1.2-0.2
	c0.3-0.2,0.6-0.5,0.8-0.8c1.8-2.8,1.1-6.5,0.1-9.7c-2.1-6.2-5.4-12-6.8-18.5c-0.3-1.5-0.5-3.1-1-4.6c-0.6-1.7-1.5-3.3-2.4-4.9
	c-1.8-3.5-2.9-7.4-3.4-11.3c-0.1-0.9,0.3-2.3,1.2-2.1c0.3,0.1,0.6,0.4,0.8,0.7c1.4,2.3,1.3,5.1,1.5,7.8c0.3,2.6,1.3,5.6,3.8,6.5
	c1.6,0.6,3.6,0.3,4.8,1.5c0.3,0.3,0.6,0.8,1,0.9c0.3,0,0.7-0.2,0.9-0.4c1.5-1.4,1.6-3.7,1.3-5.7c-0.3-2-0.8-4.1-0.2-6
	c0.1-0.4,0.3-0.8,0.7-1.1c0.6-0.4,1.4-0.2,1.9,0.3c0.5,0.5,0.7,1.2,0.9,1.9c0.8,3.7-0.1,7.5-0.7,11.3c-0.6,3.7-0.9,7.8,0.9,11.1
	c0.8,1.4,1.9,2.7,2.4,4.2c0.9,2.9-0.7,6.2,0.4,9.1c0.6,1.7,2.2,3,2.4,4.7c0.4,3-2.9,5.8-1.9,8.6c1,3.1,5.9,3,7.5,5.8
	c0.6,1.1-0.3,1.3-1.5,1.7c-1.2,0.4-2.7,0.4-3.7,1.2c-1.4,1.2-0.9,3.6,0.2,5c1.2,1.5,2.8,2.4,4,3.9c1.1,1.5,1.6,3.8,0.2,5
	c-0.4,0.3-0.8,0.5-1.1,0.8c-1.3,1-1.6,3-0.7,4.3c0.5,0.7,1.2,1.1,1.7,1.8c0.5,0.6,0.9,1.5,0.5,2.2c-0.5,0.9-1.8,0.9-2.5,1.6
	c-1.1,1.1-0.3,3.4-1.5,4.4c-0.5,0.4-1.3,0.4-1.9,0.8c-1.2,0.6-1.3,2.6-0.2,3.4c2,1.5,4.9-1.5,7.3-0.6c1.8,0.6,2.7,3.3,4.6,3.3
	c0.5,0,1.1-0.2,1.6-0.2c1.8,0.1,2.1,2.7,3.3,4.1c0.8,1,2.3,1.4,2.8,2.6c0.6,1.4-0.6,3-0.3,4.5c0.3,1.7,2.2,2.7,2.8,4.3
	c0.3,0.8,0.3,1.6,0.7,2.4c0.8,1.8,3.1,2.5,5,2.5c1.6,0,3.2-0.2,4.7-0.6c2.6-2.8,6.6-4.8,10.5-4.7c0.5,0,1.1,0.1,1.5,0.4
	c0.4,0.3,0.6,0.9,0.3,1.4c-0.2,0.3-0.6,0.4-1,0.4c-2.5,0.3-5.6-0.3-7,1.8c-0.6,0.8-0.7,1.8-1.2,2.6c-1.2,1.9-3.9,1.9-6.1,1.9
	c-2.9,0-5.8,0.2-8.5,1.4c-0.9,0.4-1.9,0.9-2.9,1.1c-1.4,0.2-2.9-0.2-4.3-0.4c-1.6-0.2-3.2,0.1-4.8,0.6c-0.5,0.2-3.5,0.4-3.6,0.5
	c-1.9,2,4.6,4.6,5.7,4.6c1.9,0,4.3-0.5,5.1,1.1c0.3,0.6,0.2,1.4,0.2,2.1c-0.2,1.3-0.4,2.7-0.1,4.1c0.2,1.3,1,2.7,2.3,3.2
	c3.5,1.4,6.9-4,10.4-2.8c1.5,0.5,2.1,0.7,3.7,1.1c1.6,0.4,3.3,0.8,4.8,0.3c2.4-0.8,3.8-3.7,6.4-4.1c1.1-0.2,2.5,0.5,2.3,1.6
	c-0.2,1.2-1.7,1.3-2.7,2c-1.8,1.3-1.5,4.8-3.6,5.5c-0.6,0.2-1.2,0.2-1.7,0.1c-1.7-0.1-3.4-0.3-5.1-0.4c-1.3-0.1-2.7-0.2-3.7,0.7
	c-1.1,1-1,3-0.1,4.2c0.9,1.3,2.3,2,3.7,2.7c2.2,1.1,4.3,2.3,6.5,3.4c0.9,0.5,0.8,0.9,0.9,1.9c0.1,1-0.7,2.1-1.7,2
	c-0.9-0.1-1.4-0.9-2-1.5c-1.3-1.3-3.3-1.5-5.2-1.6c-2.2-0.1-4.4-0.2-6.6-0.2c-2.2,0-4.7,0.2-6,1.9c-1.5,1.9-0.8,4.7-1.3,7
	c-0.4,2-1.8,3.7-3.6,4.6c-1.8,0.9-3.9,1-5.5,2.2c-0.7,0.6-1.3,1.3-1.8,2c-2.9,3.6-6.7,6.5-11,8.4c-0.6,0.2-1.1,0.5-1.6,0.9
	c-0.9,0.9-0.9,2.3-0.4,3.4s1.4,2,2.3,2.8c0.9,0.8,1.8,1.5,2.7,2.3c0.5,0.4,1.1,0.9,1.7,1c0.8,0.2,1.7-0.1,2.5-0.3
	c5.5-1.7,11.5-2.1,17.2-1.2c1.2,0.2,2.7,1,2.3,2.1c-0.3,0.9-1.5,0.9-2.5,0.9c-1.7,0.1-3.4,1-4.5,2.3c-0.7,0.9-1.2,2-2.1,2.6
	c-1.1,0.7-2.5,0.5-3.7,0.5c-4.4-0.1-8.7,1.9-11.9,4.9c-4.4,4.1-5.7,9.2-7.9,14.5c-2.2,5.4-5.6,10.3-6.7,16.1
	c-0.5,2.4-0.9,5.4-3.2,6.3c-0.7,0.3-1.5,0.3-2.2,0.6c-1.9,0.8-2.5,3.2-2.6,5.3c0,0.6-0.1,1.2-0.4,1.7c-0.3,0.4-0.7,0.6-1.1,1
	c-1.5,1.3-1.4,4,0.1,5.2c0.4,0.3,1,0.6,1.3,1c0.8,0.9,0.5,2.4,1.2,3.4c0.9,1.4,3,1.3,4.5,1.9c3.8,1.7,3.6,7.5,6.6,10.3
	c1.7,1.6,4.4,2.1,5.6,4.2c1.2,2.1,0.3,4.8-1,6.8c-0.5,0.8-1.1,1.7-1.9,2.2c-0.8,0.5-2,0.6-2.8,0.1c-1.5-1.1-0.6-3.5-1.4-5.2
	c-0.5-1.1-1.5-1.8-2.6-2.1c-1.9-0.5-4.2,0.3-5,2c-0.8,1.8,0.7,4.3,2.6,4.1c1-0.1,2.2-0.9,3-0.2c0.5,0.5,0.5,1.3,0.4,1.9
	c-0.1,0.7-0.2,1.4-0.3,2.1c-0.1,0.4-0.1,0.8-0.4,1.1c-0.4,0.4-1.1,0.2-1.6,0.2c-1.8-0.1-3.6,1.5-3.7,3.3c0,0.5,0,1-0.2,1.5
	c-0.4,0.8-1.4,0.9-2.2,1.3c-1.9,0.7-3.1,2.9-2.7,4.8c0.4,2,2.3,3.5,4.3,3.5c2,0,3.9-1.6,4.2-3.6c0.2-1.1,0-2.2,0.2-3.2
	c0.2-1,1.3-2.1,2.3-1.7c1-0.5,2.3,0.8,2.4,1.9c0.1,1.1-0.5,2.2-0.9,3.3c-1.1,2.6-1.5,5.5-1.1,8.3c0.4,2.8,1.5,5.5,0.9,8.2
	c-0.7,3.1-3.6,5.5-4,8.7c-0.1,0.6,0,1.3,0.3,1.7c0.3,0.4,0.7,0.6,1.1,0.8c1.2,0.5,2.5,0.5,3.7,0c0.9-0.4,1.7-1,2.6-1.4
	c3.1-1.6,6.8-1,10.2-0.2c0.9,0.2,1.8,0.4,2.5,1c0.7,0.6,1.1,1.7,0.6,2.5c-0.5,0.8-1.6,1-2.5,0.8c-0.9-0.2-1.7-0.8-2.6-1.1
	c-3.5-1.3-7.2,1.2-10.9,2c-1.3,0.3-2.9,0.5-3.6,1.6c-1,1.5,0.2,3.6,1.8,4.4c1.6,0.8,3.5,0.6,5.3,0.6c5,0.1,10.2,2,13,6.1
	c0.8,1.2,1.4,2.9,0.4,4c-0.8,0.9-2.1,0.9-3.3,0.8c-2.1-0.2-4.5-0.7-5.4-2.6c-0.5-1-0.4-2.2-0.8-3.3c-0.8-2.3-3.4-3.4-5.8-3.7
	c-0.6-0.1-1.3-0.1-1.8,0.2c-1.3,0.6-1.5,2.3-2,3.6c-0.7,2-2.4,3.8-2.4,5.9c0,2.8,2.7,4.7,5.1,5.9c2.5,1.2,5.3,2.4,6.3,5
	c-4.4,1.5-9.7-1-11.3-5.4c-0.8-2.1-0.7-4.5-2-6.4c-0.5-0.7-1.2-1.3-1.7-2c-1-1.5-1.1-3.3-1.2-5.1c0-1.8,0-3.6-0.7-5.2
	s-2.5-2.9-4.2-2.5c-1.2,0.3-2,1.3-2.6,2.3c-1.5,2.4-2.4,4.7-2.3,7.6c0.1,2.5,0.3,5,0.8,7.4c1,4,2.9,7.7,4.9,11.3
	c0.5,0.9,1,1.9,1.9,2.5c1.4,1,3.2,1,5,1.3c3.5,0.6,6.7,2.5,9.7,4.5c3.5,2.3,7.2,5,6.7,9.7c-0.2,1.7-0.7,3.4-0.5,5.1
	c0.2,1.7,1.6,3.4,3.3,3.3c0.8-0.1,1.6-0.5,2.4-0.4c1.2,0.2,1.9,1.9,1,2.9c-0.7,0.7-1.8,0.8-2.5,1.5c-0.7,0.8-0.6,1.9-0.9,2.9
	c-0.4,1.3-1.4,2.3-2,3.5c-0.6,1.2-0.4,3,0.9,3.4c2,0.6,3.6-3.2,5.5-2.3c1.2,0.6,1,2.4,0.5,3.7c-0.7,1.7-1.4,3.4-1.3,5.3
	c0,0.4,0.1,0.9,0.3,1.2c0.7,1,2.4,0.7,3.2-0.2c0.9-0.9,1.3-2.1,2-3.1c0.3-0.5,0.8-0.9,1.4-0.9c0.7,0,1.2,0.6,1.8,0.9
	c1.9,1.1,4.5-0.4,5.4-2.5s0.7-4.4,0.7-6.6c0-2.2,0.4-4.7,2.1-6.2c2.3-2,6.1-1.4,8.1-3.6c5.6-6.2,11.4-11.9,11.4-20.3
	c0-2.8-1.1-6.8-0.2-9.4c0.2-0.5,0.6-0.9,1.1-0.8c0.8,0.1,1,1.1,1,1.8c0.1,1.9,0.1,3.9,0.1,5.8c0,4.6,0.2,9.1,0.5,13.7
	c0.1,0.9,0.1,1.9,0.6,2.7c1.1,1.8,3.7,1.9,5.4,3.1c1.2,0.7,2,1.9,3.1,2.7c1.2,0.7,3,0.8,3.6-0.5c0.3-0.7,0.2-1.5,0.7-2.1
	c0.7-0.7,1.9-0.3,2.7,0.3c0.8,0.6,1.8,1.2,2.7,0.8c1.7-0.7,0.6-3.9,2.3-4.8c0.4-0.2,0.8-0.2,1.3-0.3c2.6-0.4,4.6-3,4.2-5.6
	c-0.2-1.2-0.8-2.3-0.6-3.5c0.3-2,2.5-3.1,3.4-5c1.3-2.9-1.1-6.6,0.7-9.2c1.8-2.6,4.3-3.7,7.2-5.1c3.7-1.8,6.9-4.5,9.1-7.9
	c0.6-0.9,1.7-1.8,2.4-1.1c0.2,0.2,0.2,0.5,0.4,0.7c0.3,0.3,0.8,0.3,1.2,0.3c2.8-0.1,6-0.4,8-2.4c2.1-2.2,2.2-5.8,4-8.2
	c0.2-0.3,0.6-0.7,1-0.7c0.6-0.1,1.1,0.5,1.3,1c0.2,0.5,0.2,1.2,0.5,1.7c0.7,1.5,2.7,1.7,4.4,1.7c1,0,2.2-0.1,2.7-1
	c0.3-0.5,0.3-1,0.6-1.5c0.6-1,2.3-0.9,3.1-0.1c0.8,0.9,1,2.1,1.1,3.3c0.1,2-0.1,4-0.7,6c-0.3,1-0.7,2-1.4,2.8
	c-0.7,0.8-1.9,1.2-2.9,0.9c-2.7-1-1.6-6-4.3-6.9c-1.4-0.5-2.9,0.7-3.1,2.1c-0.2,1,0.2,2.1,0,3.1c-0.3,1.6-2,2.7-2.4,4.2
	c-0.2,0.8-0.1,1.7-0.2,2.5c-0.2,0.8-0.8,1.7-1.7,1.5c-0.6-0.1-1-0.7-1.5-1.1c-1-0.8-2.5-0.7-3.4,0.1c-1,0.7-1.5,2-1.4,3.3
	c0.1,1.1,0.5,2.3-0.1,3.2c-0.6,0.9-1.8,1-2.7,1.3c-1.7,0.7-2.8,2.3-3.7,3.9c-0.6,1-1.3,2.2-0.9,3.3c0.5,1.4,2.4,2,2.8,3.5
	c0.1,0.4,0.1,0.9,0.4,1.3c0.3,0.3,0.8,0.4,1.3,0.4c1.5,0.1,2.9,0.1,4.4,0c1.1-0.1,2.8,0.4,3.8,0.1c0.6-0.2,1-0.6,1.5-0.8
	c2.3-1.1,4.9,0.4,6.9,1.8c0.5,0.3,1,0.7,1.1,1.3c0.2,0.9-0.6,1.9-0.2,2.7c0.4,0.9,1.7,0.9,2.5,1.4c1.5,1.1,0.9,4.3,2.7,4.6
	c1.1,0.2,1.9-1.1,2.1-2.2c0.2-1.1,0.3-2.4,1.2-3.1c1.1-0.9,2.7-0.3,4.1-0.3c1.7,0,3.3-1,4-2.4c0.2-0.5,0.4-1,0.8-1.3
	c0.5-0.6,1.3-0.7,2-1.1c1.8-0.9,2.9-3.1,2.5-5.1c-0.1-0.6-0.4-1.3-1-1.6c-1.1-0.6-2.9,0.4-3.7-0.5c-0.5-0.6-0.3-1.5-0.6-2.1
	c-0.4-0.8-1.4-1-2.2-0.8c-0.8,0.2-1.5,0.7-2.2,1.3c-0.3,0.2-0.6,0.5-0.9,0.5c-0.6,0.1-1.1-0.4-1.4-1c-0.7-1.6,0.4-3.5,2-4.2
	c1.6-0.6,3.5-0.2,4.9,0.7c0.5,0.3,1,0.7,1.6,0.7c0.5,0,0.9-0.3,1.4-0.4c0.9,0,1.5,0.8,2.1,1.5c0.6,0.7,1.7,1.3,2.3,0.7
	c0.4-0.4,0.4-1.1,0.8-1.4c0.6-0.5,1.5-0.1,2.2,0.1c1.9,0.5,4-0.4,4.9-2.1c0.9-1.7,0.5-4-0.9-5.3c-1.1-1-2.8-1.5-3.4-2.8
	c-0.2-0.4-0.3-0.9-0.5-1.4c-0.4-1-1.3-1.7-2.1-2.4c-3.1-2.6-6-5.3-8.7-8.3c-1.1-1.2-2.3-2.9-1.8-4.4c0.5-1.4,2.2-2.3,2.1-3.8
	c-0.1-1.4-2-2.5-1.5-3.8c0.2-0.5,0.7-0.8,0.9-1.3c0.5-1.1-0.5-2.3-1.3-3.2c-0.9-0.9-1.6-2.4-0.6-3.2c0.6-0.5,1.6-0.3,2.3,0.1
	c0.7,0.4,1.3,1,2.1,1.2c0.8,0.2,1.8-0.2,1.9-1c0.9-1.1,2.6-1.5,4.1-1.5c1.4,0,2.8,0.3,4.2,0c1.4-0.3,2.7-1.5,2.6-2.9
	c0-0.5-0.3-1-0.1-1.5c0.3-1.1,2.1-0.9,2.8,0c0.6,1,0.5,2.3,0.6,3.4c0.2,1.7,0.9,3.3,1.7,4.9c0.4,0.8,0.8,1.5,1.3,2.2
	c0.9,1,2.1,1.7,3.1,2.5c1.9,1.6,3.2,4,3.4,6.5c0.1,2.5-0.9,5.1-2.9,6.6c-0.8,0.6-1.7,1.1-2.2,2c-0.4,0.7-0.4,1.5-0.3,2.3
	c0,2.6,0.5,5.9,3,6.7c1.2,0.4,2.5,0.1,3.7,0.6c1.9,0.8,2.9,3.8,4.9,3.4c1.7-0.3,2.1-2.6,1.8-4.3c-0.3-2.1-1-4.1-2-5.9
	c-0.4-0.8-0.9-1.6-1-2.5c-0.1-0.9,0.2-1.9,1-2.3c0.5-0.2,1-0.2,1.5-0.3c1.3-0.2,2.4-1.3,2.7-2.6c0.2-0.9,0.1-1.9,0.3-2.9
	c0.2-0.9,1.2-1.8,2.1-1.4c1.2,0.5,0.6,2.4,1,3.7c0.4,1.4,2.1,2,3.6,2.3c0.5,0.1,1.1,0.2,1.7,0.1c1.8-0.5,1.7-3.4,3.4-4.2
	c0.4-0.2,0.9-0.3,1.3-0.5c1.2-0.7,1.1-2.5,0.6-3.8c-0.4-1.3-1-2.9-0.1-4c0.4-0.5,1.1-0.8,1.7-1.2c1-0.7,1.6-1.9,1.8-3.2
	c0.4-2.6-1.2-5.4-3.6-6.5c-2.4-1.2-5.4-0.8-7.5,0.8c-1.5,1.1-2.7,2.7-4.3,3.6c-2.4,1.2-5.8,0.3-7.2-2.1c-0.4-0.6-0.7-1.3-1.3-1.7
	c-0.4-0.3-0.9-0.4-1.2-0.6c-1.5-1.1,0-3.6-0.5-5.4c-0.4-1.3-1.9-2.4-1.5-3.8c0.3-1.2,2-1.5,3.1-0.9c1.1,0.5,2,1.5,3,2.1
	c2.8,1.7,7.1,0,8-3.1c0.3-0.9,0.3-1.8,0.7-2.6c1-1.7,3.3-2,5.3-2.1c2.6,0,5.4-1.5,7.6,0.3c0.9,0.7,1.8,1.5,2.9,1.4
	c1-0.1,1.7-1.1,2.6-1.5c1.4-0.6,2.9-0.1,4.4,0.2c3.7,0.6,8-1.6,8.8-5.2c0.3-1.2,0.1-2.4,0.3-3.6c0.2-1.2,0.8-2.5,1.9-2.9
	c0.2-0.1,0.4-0.1,0.6-0.1c1,0.2,0.7,1.6,0.6,2.6c-0.1,1.5,1,2.8,2.4,3.4c1.4,0.6,2.9,0.6,4.4,0.4c0.6-0.1,1.2-0.2,1.7-0.5
	c0.7-0.5,1-1.4,1.2-2.3c0.3-1.1,0.6-2.3,0.5-3.5c-0.1-1.2-0.9-2.3-2-2.7c-0.9-0.3-2.2-0.4-2-1.3c0.1-0.3,0.3-0.5,0.5-0.7
	c1.5-0.9,3.7,0.4,3.6,2.1c1.4-0.4,2.4-1.7,2.6-3.1c0.2-1.2,0.1-3,1.4-3.2c1.2-0.1,1.6,1.6,1.5,2.8c-0.2,3.1-0.5,6.2-1.5,9.1
	c-0.3,0.8-0.7,1.7-0.7,2.6c0,0.6,0.2,1.2,0.2,1.7c0,1.2-1,2.3-1,3.6c-0.1,2.3,2.6,3.7,4.9,3.6c1.7-0.1,3.8-0.4,4.8,0.9
	c1,1.3,0.4,3.6,1.9,4.4c0.4,0.2,1,0.2,1.4,0.2c2,0,4.1-0.1,6.1-0.1c1,0,2.1,0,3.1-0.5c1-0.4,1.8-1.3,1.8-2.4c0-0.7-0.4-1.4-0.3-2.2
	c0.2-1.5,2.3-1.8,3.8-1.7c0.9,0.1,1.9,0.1,2.8,0.2c2.4,0.1,1.6,1.6,2.7,3.1c1.1,1.5,3.7,1.9,4.8,0.2c1.8-2.5-1-6.9,3.5-7.7
	c1-0.2,2.2,0.5,2.3,1.5c0,0.6-0.3,1.1-0.4,1.7c-0.2,1.5,1.3,2.8,1,4.2c-0.4,1.5-2.4,1.8-3.6,2.8c-3.9,3.2,1.6,6,4.5,5.7
	c1.6-0.2,3.1-0.7,4.7-0.9c1.9-0.2,4.1,0,5.1-1.6c1.1-1.8-0.4-4.3,0.5-6.2c0.6-1.3,2.1-2,2.4-3.3c0.4-1.8-1.4-4,0-5.2
	c0.3-0.2,0.7-0.4,0.8-0.7c0.5-0.9-0.9-1.6-1.9-1.4c-1,0.1-2.3,0.2-2.6-0.7c0.3-0.8,1.2-1.2,2-1.2c0.8,0,1.6,0.2,2.4,0.4
	c1.7,0.4,3.6,0.3,5-0.7c2.3-1.6,2.5-5.3,0.6-7.3c-2-2.1-5.3-2.1-7.6-0.7c-1.9,1.1-5.3,5.5-7.7,3.5c-1.2-1-0.2-3.4,0.5-4.4
	c1-1.6,3.1-2.4,4.9-2.4c2.5-0.1,5,0.8,7.5,1.2c1,0.1,2.2,0.1,2.7-0.7c0.5-0.7,0.3-1.6-0.2-2.3c-0.5-0.7-1.2-1.1-1.9-1.5
	c-1.4-0.8-2.7-1.6-4.1-2.4c1-1.4,3-1.9,4.6-1.2c1.1,0.5,1.8,1,3,1.3c1.1,0.4,2.5,0.3,3.4-0.5c0.4-0.4,0.8-0.9,1.3-1.2
	c0.8-0.5,1.9-0.1,2.7,0.5c0.8,0.6,1.4,1.4,2.2,1.8c0.4,0.2,1,0.4,1.1,0.9c0.2,0.9-1.1,1.3-1.9,1.7c-0.9,0.5-1.4,1.7-1.1,2.7
	c0.3,1,1.3,1.8,2.3,1.8c1.2,0,2.2-0.9,3.4-1.1c1.3-0.2,2.6,0.3,3.8-0.2c1.6-0.7,1.7-2.9,1.5-4.6c-0.2-2.6-0.6-5.6-2.9-7
	c-0.6-0.4-1.3-0.6-1.9-0.9c-1.6-0.9-2.5-3.1-1.7-4.7c0.8-1.7,3.4-2.2,4.6-0.9c1.1,1.2,0.9,3.3,2.2,4.3c2.1,1.7,5.5-1.5,7.8-0.2
	c1.5,0.9,1.6,3,2.2,4.7c1.1,3,4.9,4.7,7.9,3.5c1.4-0.6,3-1.7,4.3-1c0.5,0.3,0.9,0.8,1.3,1.2c1.6,1.5,4.2,1.2,6.3,0.7
	c1.9-0.4,3.4,0.4,4.9,1.6c1.5-0.7,0.2-3.7,1.7-4.3c0.8-0.3,1.7,0.4,1.9,1.3c0.2,0.8,0.1,1.7,0.2,2.6c0.1,0.9,0.7,1.8,1.6,1.8
	c1.6,0,1.6-2.8,3.1-3.3c1.1-0.4,2.2,0.6,2.5,1.7c0.3,1.1,0.2,2.3,0.4,3.4c0.5,1.9,2.3,3.4,4.3,3.4c2,0,3.9-1.4,4.4-3.3
	c0.4-1.5,0.4-3.6,1.9-4c1.2-0.3,2.2,0.9,2.9,2c0.7,1.1,1.8,2.2,3,1.8c1.3-0.5,1.1-2.5,0.3-3.5c-0.9-1.1-2.2-1.7-3-2.8
	c-0.8-1.1-0.4-3.2,1-3.2c0.7,0,1.4,0.6,1.9,1.1c1.3,1.3,3,2.3,4.9,2.3c1.8,0,3.7-1.6,3.5-3.4c-0.1-0.7-0.5-1.5-0.1-2.1
	c0.3-0.4,0.8-0.6,1.3-0.7c3-0.9,3.4-3.6,6.2-4.6c1.5-0.6,3.1-0.8,4.5-1.7c2.2-1.5,3.1-4.3,3.8-6.8c1.3-4.6,2.6-9.4,2.1-14.1
	c-0.1-0.8-0.2-1.7,0-2.5c0.2-0.8,0.8-1.6,1.6-1.7c0.6-0.1,1.1,0.1,1.7,0.3c1.8,0.4,3.9-0.4,4.9-2c0.8-1.2,1.1-2.9,2.4-3.5
	c0.8-0.4,1.8-0.3,2.6-0.6c1.1-0.5,1.8-1.7,1.9-3c0.1-1.2-0.2-2.4-0.4-3.6c-0.6-2.9-0.7-5.9-0.3-8.8c0.1-0.6,0.2-1.2,0.6-1.7
	c0.4-0.5,1-0.8,1.5-1.1c2-1.5,1.8-4.4,1.4-6.9c-0.1-0.4-0.1-0.8,0.1-1.2c0.4-0.8,1.8-0.6,2.3,0.3c0.5,0.8,0.3,1.8,0.1,2.8
	c-0.2,0.9-0.3,2,0.3,2.7c0.9,1.3,3.1,0.9,4-0.4c0.9-1.3,1-3,1-4.6c0-3.4,1.1-5.7,1.6-9.1c0.2-1.4,0.2-2.9,1-4.1c0.4-0.6,1-1,1.4-1.6
	c0.8-1.2,0.6-2.9-0.4-3.9c-0.3-0.3-0.7-0.5-1.1-0.8c-1.1-1-1.4-2.7-1.2-4.2c0.2-1.5,0.9-2.9,1.5-4.2c1.3-3,2.2-6.2,3.1-9.4
	c1.8-6.6,3.6-13.1,5.5-19.7c0.8-3.1,1.7-6.2,1.4-9.4c-0.1-1.3-0.4-2.6-0.3-3.8c0.2-3.7,3.6-6.7,3.7-10.5c0-1-0.1-2.2,0.5-3
	c0.4-0.5,1-0.7,1.5-1.1c0.9-0.7,1.2-1.9,1.4-3c0.5-3.6,0-7.4-1.4-10.8c-0.3-0.6-0.6-1.3-1.3-1.4c-0.6-0.1-1.2,0.4-1.7,0.8
	c-2.9,2.8-5.5,6-7.7,9.5c-0.9,1.4-1.8,3-3.1,4c-1.4,1-3.4,1.5-4.8,0.5c-1.2-0.8-1.6-2.4-2.2-3.7c-0.6-1.3-1.7-2.8-3.1-2.6
	c-0.5,0-1,0.2-1.4,0.1c-0.6-0.2-0.9-0.9-0.9-1.6c0.1-2,2.2-3.2,3.9-4.3c3-1.9,3.8-5.8,1.8-8.7c-1.1-1.5-2.8-2.6-3.4-4.3
	c-0.6-1.6-0.2-3.4-0.3-5.1c-0.2-2.4-1.6-4.6-2.2-7c-0.7-2.6-0.5-5.3-0.2-8c0.3-3.5,0.6-7,0.9-10.5c0.3-3.3,0.7-6.8,2.8-9.3
	c0.8-0.9,1.8-1.6,2.6-2.6c1.4-1.6,2.1-3.8,2.5-5.9c1-4.9,1-9.9,0.9-14.8c0-2.1,0-4.3-0.7-6.3c-0.7-2.2-2.2-4-3.1-6.1
	c-0.9-2.1-1-4.8,0.6-6.4c0.3-2.9,0.3-5.2,2-7.5c1.2-1.5,3-2.5,4.1-4.1c1.7-2.4,1.8-5.5,1.6-8.4c-0.2-4.5-0.5-9.1-2.5-13
	c-1.1-2.2-2.7-4.2-3.6-6.4c-0.7-1.8-1-3.6-1.3-5.5c-0.7-4.6-1.4-9.3-1.4-13.9c-0.1-5.2,0.2-10.3,0.5-15.4c0.1-0.9,0.1-1.9-0.2-2.8
	c-0.3-1.1-1.3-1.6-2.1-2.2c-2-1.5-3.5-3-4.2-5.4c-0.5-1.7-0.6-3.5-1.4-5c-0.5-0.9-1.2-1.6-1.7-2.4c-3.4-5.3,1.2-13-2.1-18.3
	c-0.6-1-1.5-1.8-2-2.9c-0.4-1-0.6-2.1-1-3c-1-2-3.2-2.9-4.8-4.4c-1.4-1.3-2.3-3-2.6-4.9c-0.3-2.3,0.2-4.9-1.3-6.6
	c-1-1.2-2.5-1.6-3.9-2.3c-2.2-1.2-3.9-3.3-4.6-5.7c-0.3-0.9-0.4-1.9-0.7-2.7c-0.9-2.4-3.2-3.9-5-5.7c-3.4-3.4-5.3-8.3-5-13.1
	c0.1-1,0.2-1.9,0-2.9c-0.4-2-2.2-3.3-3.9-4.4c-2.1-1.4-3.1-3.1-4.4-5.2c-0.7-1.1-1.4-2.4-1.1-3.7c0.2-0.8,0.7-1.5,0.9-2.3
	c0.7-2.5-1.4-4.1-2.9-5.7c-1.8-1.9-3.1-4.1-5.1-5.9c-1.7-1.6-3.7-2.9-5.4-4.5c-4.6-4.4-7.1-10.6-11.4-15.2c-2.3-2.4-5.2-4.7-5.8-8
	c-0.2-1.1-0.1-2.2-0.5-3.3c-0.3-0.9-1-1.7-1.7-2.4c-5.7-6.5-11.1-13.2-16.5-19.9c-1.7-2.1-3.5-4.3-4.4-6.9c-0.7-2-0.9-4.1-2-5.9
	c-1.1-1.7-2.8-2.8-4.4-4.1C362.2,90.1,363.8,84.2,362.1,79z"/>
<path class="st0" d="M35.1,708c-0.8-2.5-3.8-4-6.3-3.2c-0.4,0.1-0.8,0.3-1.1,0.7c-0.9,1.3,1,2.8,1,4.4c0,1-0.9,1.9-1.8,2.3
	c-0.9,0.4-2,0.6-2.9,0.9c-1.3,0.5-2.5,1.5-3.3,2.7c-0.5,0.8-0.8,1.8-1.4,2.5c-0.7,0.9-1.8,1.4-2.8,1.9c-3.2,1.7-6.1,4.1-8.4,7
	c-1,1.3-1.9,2.6-2.2,4.2c-0.7,3.3,1.7,6.9,5,7.5c1.3,0.2,2.8,0.1,3.7,1.1c0.3,0.3,0.5,0.8,0.8,1.1c1.4,1.8,4.5,1.2,5.9-0.6
	c0.4-0.5,0.8-1.1,1.4-1.3c1-0.3,2.4,0.5,3-0.3c1.7,0.5,2.9-0.4,4.6-0.9c0.4-0.1,0.9-0.2,1.3,0c0.7,0.4,0.6,1.6,1.3,2.2
	c0.5,0.4,1.3,0.2,2,0c0.8-0.3,1.6-0.6,1.9-1.4c0.2-0.5,0-1,0-1.5c0-1,0.3-2,1-2.7c1-1,2.9-0.4,3.2-1.7c0.1-0.4,0-0.7,0.1-1.1
	c0.2-1.3,1.9-1.5,2.8-2.4c0.8-0.8,0.9-2.1,0.7-3.2c-0.2-1.1-0.5-2.2-0.4-3.3c0.1-1.2,0.7-2.2,1.3-3.3c0.6-1,1.1-2.2,1-3.3
	c-0.1-1.2-1.1-2.3-2.3-2.2c-0.2,0-0.5,0.1-0.7,0c-0.5-0.1-0.7-0.7-0.9-1.1C41.3,710.1,38.2,709.1,35.1,708z"/>
<path class="st0" d="M104.9,787.4c-2.4,0.2-4.6,1.6-7.1,1.9c-2.9,0.4-5.8-0.5-8.8-0.3c-3.5,0.3-6.6,2.4-9.8,3.9
	c-1.8,0.9-3.8,1.6-5.8,1.5c-1.1-0.1-2.2-0.4-3.3-0.5c-4.3-0.7-8.9,0.4-12.3,3c-1.4,1.1-2.9,2.5-4.7,2.5c-1,0-1.9-0.4-2.9-0.3
	c-2.2,0.1-3.6,2.4-5.6,3.3c-2.6,1.1-6-0.1-8.1,1.8c-1,0.9-1.5,2.3-2.6,3.1c-0.9,0.7-2.1,0.8-3.1,1.3c-1.5,0.8-2.4,2.5-3.3,3.9
	c-1.9,3.2-4.5,6-7.6,8.1c-1.2,0.9-2.6,1.7-3.3,3c-0.6,1.2-0.6,2.7-0.6,4.1c0.1,3.6,0.4,7.6,2.8,10.2c1.4,1.4,3.2,2.3,4.7,3.5
	c2.6,2.1,4.2,5.4,7.3,6.5c0.5,0.2,1.1,0.3,1.7,0.2c1.8-0.4,2.1-2.7,2.7-4.4c0.9-2.5,4.2-4.5,6.4-2.8c0.5,0.4,1,1,1.6,1.3
	c2.2,0.9,4.1-2.8,6.4-2.2c1.1,0.3,1.9,1.5,3.1,1.6c0.9,0,1.7-0.8,2.6-0.8c1.8,0,2.8,2.8,4.5,2.5c0.6-0.1,1.2-0.6,1.7-1
	c5.1-3.7,13.4,2.5,18.3-1.6c2-1.7,3.1-5,5.8-5.2c1.6-0.1,3.1,1.3,4.8,1c1.8-0.3,3-2.5,4.9-2.6c1.5,0,3,1.4,4.2,0.6
	c1-0.7,0.8-2.3,1.7-3.3c1.3-1.4,3.5-0.1,5.3,0.1c1.5,0.1,3-0.6,3.8-1.9c0.3-0.4,0.5-1,0.9-1.3c0.5-0.5,1.3-0.7,2-1.1
	c3.1-1.7,2.4-6.5,4.7-9.2c1.9-2.2,5.9-3.1,5.9-6c0-0.9-0.4-1.8-0.5-2.7c-0.1-1.4,0.6-2.9,0.4-4.3c-0.2-1.4-1.4-2.5-2-3.8
	c-1.1-2.3-0.7-5.5-2.8-7c-1.3-0.9-3.2-0.7-4.8-0.8C109.3,793,110.3,786.8,104.9,787.4z"/>
<path class="st0" d="M183.2,388.7c-1.8,1.4-4.5,0.9-6.6,2c-2.5,1.3-3.2,4.5-3.7,7.3c-0.5,2.9-1,5.8-1.4,8.7
	c-0.4,2.2-0.7,4.6,0.7,6.4c0.6,0.8,1.4,1.3,2,2c1.2,1.5,1.1,3.6,1.4,5.5c0.7,4.4,3.5,8.4,7.4,10.5c1.9-2.2,1.8-5.5,1.8-8.5
	c0-2.9,0.5-6.4,3.1-7.8c2.7,3.8,4.7,8.1,5.9,12.7c0.3,1.1,0.7,2.3,1.7,2.7c1.2,0.3,2.3-0.8,2.7-2c0.5-1.1,0.6-2.5,1.5-3.3
	c0.8-0.8,2-1,2.9-1.6c2-1.3,2.5-3.9,3-6.4c-0.5-0.4-0.9-0.8-1-1.5c-0.3-1.3,0.4-2.5,0.8-3.8c0.5-1.6,0.5-3.3,0.8-4.9
	c0.7-3.1,2.6-5.7,4.1-8.5c1.4-2.8,2.3-6.3,0.8-9.1c-0.3-0.6-0.9-1.2-1.6-1.2c-1.7,0.1-1.2,2.8-2,4.3c-1,1.7-3.8,1.2-5-0.3
	c-1.2-1.5-1.5-3.6-2.3-5.4c-0.7-1.8-2.4-3.6-4.4-3.3c-1.9,0.3-3.9,2.6-5.3,1.3c-0.7-0.6-0.6-1.7-0.8-2.6c-0.2-1.2-0.9-2.3-1.6-3.3
	c-1.1,1.6-1.9,3.3-2.5,5.2C185,385.4,184.7,387.5,183.2,388.7z"/>
<g>
	<g>
		<g>
			<path class="st0" d="M103.9,211.2c0.4-1.3,0.9-2.8,0.6-4.1c-0.5-2.5-3-4-3.9-6.3c-0.9-2.2-0.1-4.7,0.3-7.1
				c0.4-2.4,0.4-5.2-1.5-6.7c-0.8-0.6-1.7-0.9-2.7-1.1c-4.5-0.9-9.4,0.3-13,3.1c-1.7,1.4-3.2,3.1-5,4.3c-0.7,0.5-1.6,0.9-2.5,1.1
				c0.8,5,0.3,10.3,0.4,15.5c0,0.8,0.1,1.7,0.4,2.4c1.2,2.3,5.5,2.8,5.2,5.4c-0.1,0.8-0.6,1.4-0.9,2.1c-0.8,1.4-1,3.2-0.2,4.6
				c0.8,1.4,2.8,2.1,4.1,1.2c0.9-0.6,1.4-1.8,2.3-2.3c1-0.6,2.2-0.3,3.3,0c0.8,0.2,1.7,0.5,2.3,1.1c1.3-0.5,2.6-1,3.8-1.7
				C100.9,220.2,102.6,215.5,103.9,211.2z"/>
			<path class="st0" d="M148.8,298.9c3.3-1.5,7.6-3.1,10.1-0.5c1.1,1.2,1.5,3,2.8,3.8c1.1,0.6,2.5,0.4,3.7,0.6
				c3.8,0.4,6.5,3.6,8.8,6.6c2.2-0.2,2.3-3.4,3.5-5.3c1.3-1.9,3.9-2.3,6.2-2.7c2.3-0.4,4.9-1.5,5.3-3.8c0.2-1.5-0.7-3.2,0.2-4.5
				c1.1-1.8,3.9-0.7,6-1.2c4.1-0.9,4.5-7.5,8.5-8.6c2.8-0.8,6.6,1.3,8.3-1.1c0.5-0.7,0.6-1.6,1-2.4c1.3-2.2,4.5-1.9,7-2.5
				c3.6-1,6-5.1,5.1-8.7c-0.5-2-1.7-4.8,0.2-5.8c1.7,1.5,3.5,3,5.8,3.4c4.3,0.6,5-3.9,6.3-6.8c0.2-0.4,3.2-11.4,0.6-10.2
				c4.4-2.1,6.5-7.7,5.6-12.5c-0.6-3.3-2.2-6.9-0.7-9.9c0.8-1.5,2.2-2.5,3.3-3.8c2.8-3.2,3.6-8.1,1.9-12c-0.8-1.9-2.1-3.5-2.9-5.4
				c-0.8-1.9-0.8-4.3,0.6-5.7c1.9-1.9,5.5-1.4,6.9-3.7c1.4-2.2-0.6-5.1-3-6.1c-3.1-1.4-6.7-1.1-10.1-1.2c-3.4-0.2-5.4-0.4-7.7-3
				c-2-2.2-4-4.5-6.5-6c-2.6-1.5-5.8-2.2-8.5-1c-1.8,0.8-5.4,4.1-6.8,1.4c-0.8-1.5,2.7-8.8,3.3-10.5c0.3-1,0.6-2.1,0.2-3.1
				c-0.4-1-1.5-1.6-2.6-1.7c-1.1-0.1-2.2,0.2-3.3,0.5c-2.7-2.9,3.9-8.4,3.7-12c-0.2-3.2-2.8-6.2-2-9.3c2.4-1.5,4.8-3,7.3-4.5
				c2.7-1.7,5.5-3.6,6.2-6.7c1-4.2-3.1-8.3-7.3-8.9c-0.7-0.1-1.4-0.2-1.9-0.6c-1.7-1.3,0.3-4.1-0.2-6.1c-0.4-1.8-2.7-2.5-4.6-2.4
				c-1.9,0.1-3.8,0.8-5.6,0.3c-2.7-0.6-4.4-3.3-4.8-6c-0.4-2.7,0.1-5.4,0.3-8.1c0.1-0.8,0.1-1.7-0.2-2.5c-0.7-1.4-2.6-1.9-4.2-1.4
				c-1.5,0.5-2.7,1.6-3.9,2.7c-0.1-1.2-0.3-2.4-1-3.3c-0.7-1-2-1.6-3-1.1c-1.8,0.9-1.7,4.5-3.8,4.4c-0.5,0-1-0.3-1.4-0.5
				c-1.8-1.1-3.6-2.2-5.4-3.3c-0.6-0.4-1.2-0.8-1.5-1.4c-0.4-0.8-0.2-1.9,0.1-2.8c0.6-2,1.2-4,1.8-6c-1.7-0.9-3.7,0.6-5,2.1
				c-1.3,1.5-2.8,3.3-4.7,3c-3.4-0.5-3.7-6.3-7-6.8c-3,3.6,3.3,11.4-3.2,12.1c-1.7,0.2-3.4-0.7-4.6-1.9c-2.1-2.2-2.9-5.5-5.4-7.4
				c-1.6-1.3-4.4-1.3-5-3.6c-0.6-2.2-0.8-4-1.7-6.2c-0.5-1.1-1.2-2.3-2-3.1c-1.3,1.1-2.6,2.2-3.9,3.3c-1.4,1.2-3.2,2.5-4.3,4
				c-0.2,0.3-0.4,0.6-0.5,1c-0.1,0.5,0,1.1,0.1,1.6c0.4,2.1,0.5,4.3,0.3,6.5c-2.2,1.7-4.2,2.8-6.3,4.5c-2,1.6-4.1,3.3-5.3,5.5
				c-1.2,2-1.6,4.4-2.3,6.6c-1.7,5.1-5.1,9.7-9.8,12.5c-4.7,2.8-10.4,3.6-15.9,4.4c-0.1,4.8,0,9.8-0.1,14.6c0,1,0,2.1,0.6,2.8
				c0.9,1.1,2.9,1.7,2.5,3c-0.4,1-1.8,0.9-2.6,1.5c-0.8,0.6-0.9,1.8-0.9,2.8c-0.1,7.2-0.1,14.4-0.2,21.5c0,0.9,0,1.8,0.5,2.5
				c0.6,0.8,1.6,1.1,2.5,1.5c3.3,1.2,6.1,3.8,7.6,6.9c-3.4-0.4-6.2-2.6-8.9-4.7c-1.2-0.9-2.4-1.9-3.1-3.2c-0.6-1.3-0.6-2.7-0.7-4.1
				c-0.1-3.6-0.6-7.2-1.3-10.7c-0.2-1-0.8-2.3-1.9-2.1c-0.6,0.1-1,0.7-1.4,1.1c-2.4,2.7-6.7,1.6-10.4,1.2c-0.7-0.1-1.4-0.1-1.9,0.3
				c-0.7,0.5-0.9,1.5-1,2.4c-0.7,7.1-1.4,14.6,1.7,21.1c0.9,2,2.2,3.8,3.1,5.7c1,2.1,1.5,4.2,1.8,6.5c0.9-0.2,1.7-0.6,2.5-1.1
				c1.8-1.2,3.3-2.9,5-4.3c3.6-2.8,8.5-4,13-3.1c1,0.2,1.9,0.5,2.7,1.1c1.9,1.5,1.9,4.3,1.5,6.7c-0.4,2.4-1.2,4.9-0.3,7.1
				c0.9,2.3,3.4,3.9,3.9,6.3c0.3,1.4-0.2,2.8-0.6,4.1c-1.4,4.3-3,9-6.9,11.4c-1.2,0.7-2.5,1.2-3.8,1.7c0.4,0.3,0.6,0.8,0.6,1.3
				c0,1.2-1.1,2-2.2,2.4c-1.1,0.4-2.3,0.7-3,1.7c-1,1.5,0.2,3.6,1.8,4.5c1.6,0.8,3.5,0.8,5.3,1.2c1.9,0.4,3.7,1.3,5.2,2.5
				c0.4,0.3,0.8,0.7,0.8,1.2c0.2,1.3-1.4,1.9-2.7,2.1c-2.2,0.2-4.3,0.5-6.5,0.7c-1.4,0.1-3.4-0.4-3.1-1.7c-0.7-1.3-2.8-0.1-3.6,1.1
				c-0.8,1.2-0.7,2.8-0.6,4.3c0.1,1.5,0.1,3.1-0.9,4.2c-2.4-0.5-0.2-5.4-2.5-6.4c-0.9-0.4-2,0.2-2.9-0.2c-0.9-0.4-1.2-1.5-1.8-2.3
				c-1.2-1.5-3.7-1.3-5,0c-1.4,1.3-1.7,3.4-1.4,5.3c0.2,1.3,0.6,2.6,0,3.7c-0.4,0.7-1.1,1.1-1.5,1.7c-0.9,1.2-0.6,3.2,0.6,4
				c1.2,0.9,3.2,0.5,4-0.7c0.2-0.4,0.4-0.8,0.8-1c0.8-0.4,1.8,0.5,2.7,0.3c1.2-0.2,1.3-2,2.3-2.7c1.2-0.8,2.8,0.4,3.6,1.7
				c1.3,2.2,2.2,4.7,2.3,7.2c0.1,1.5,0.6,3.6,2.1,3.4c1.2-0.2,2.3-1.9,3.2-1.1c0.8,0.7-0.2,1.8-0.9,2.5c-1.6,1.7-1.7,4.5-0.3,6.4
				c0.3,0.3,0.6,0.6,1,0.7c0.7,0.1,1.3-0.5,1.7-1.1c1.6-2.2,2.5-4.7,4-7c1.5-2.2,3.9-4.1,6.6-3.9c2.7,0.2,4.9,3.5,3.3,5.7
				c-1.2,1.7-3.9,1.8-5.1,3.5c-1.9,2.8,1.7,6.9,0,9.8c-0.9,1.7-3.3,2.6-3.2,4.5c0.1,2.1,2.9,2.5,5,2.3c2-0.3,4.8-0.3,5.4,1.6
				c-1.4,0.9-3,1.6-4.6,1.9c-0.9,1,0.6,2.4,2,2.4c1.3,0,2.7-0.6,3.9,0c1.4,0.7,1.5,2.6,2.1,4.1c0.7,1.6,2.1,2.8,3.4,3.9
				c2,1.7,4.2,3.4,6.8,4c2.6,0.6,5.7-0.3,6.8-2.7c0.9-2,0.6-5.1,2.8-5.8c1.1,2.6,0.7,5.7-0.8,8c2.4-0.4,5.1-0.4,7.2-0.9
				C141.6,301.7,145.3,300.5,148.8,298.9z"/>
		</g>
		<path class="st0" d="M245.5,266.4c4,1.7,10.1-0.9,14-1.7c2.3-0.5,4.8-1,6.4-2.7c2-2.1,2.2-5.4,2.8-8.3s2.2-6.1,5.2-6.4
			c3.1-0.3,5.3,3,6.8,5.7c1.5,2.7,4.2,5.8,7.2,4.9c2.1-0.6,3.1-2.9,4.4-4.6c1.3-1.7,3.9-3.1,5.5-1.6c0.6,0.5,0.9,1.4,1.7,1.6
			c1.6,0.4,2.1-2,3.1-3.2c1.4-1.6,4.1-0.9,5.8,0.4c1.7,1.3,3.1,3.1,5.2,3.7c2.7,0.7,5.4-0.9,7.6-2.5c2.1,0.9,1.1,4.2-0.7,5.6
			c-1.7,1.4-4.2,2.8-4.1,5.1c0.1,3,4.3,3.8,7.2,3c2.9-0.8,6.2-2.2,8.6-0.4c1.8,1.3,2.4,3.9,4.3,5c2.8,1.5,6-1.2,9.2-1.3
			c4.6-0.2,7.6,4.7,11.9,6.5c3.8,1.6,8.4,0.6,12.1,2.6c2.3,1.2,3.9,3.5,5.8,5.3c1.9,1.8,4.5,3.3,7.1,2.6c2.9-3.1,4.3-7.4,3.7-11.6
			c-0.2-1.6-0.7-3.3,0-4.7c0.8-1.7,2.9-2.3,4.7-2.1c4.1,0.3,7.9,3.6,8.5,7.7c0.3,1.5,0.2,3.2,1.3,4.3c2.4,2.4,5.9-1.1,9-2.5
			c5.2-2.3,11.2,2.2,16.6,0.6c3.3-1,5.9-4.1,9.4-3.9c5.8,0.3,8.2,9.8,14,9.1c3.9-0.4,5.5-5.1,7.3-8.6c2.4-4.6,6.7-8.2,11.6-9.9
			c-0.1-0.1-0.2-0.2-0.3-0.3c-3.4-5.3,1.2-13-2.1-18.3c-0.6-1-1.5-1.8-2-2.9c-0.4-1-0.6-2.1-1-3c-1-2-3.2-2.9-4.8-4.4
			c-1.4-1.3-2.3-3-2.6-4.9c-0.3-2.3,0.2-4.9-1.3-6.6c-1-1.2-2.5-1.6-3.9-2.3c-2.2-1.2-3.9-3.3-4.6-5.7c-0.3-0.9-0.4-1.9-0.7-2.7
			c-0.9-2.4-3.2-3.9-5-5.7c-3.4-3.4-5.3-8.3-5-13.1c0.1-1,0.2-1.9,0-2.9c-0.4-2-2.2-3.3-3.9-4.4c-2.1-1.4-3.1-3.1-4.4-5.2
			c-0.7-1.1-1.4-2.4-1.1-3.7c0.2-0.8,0.7-1.5,0.9-2.3c0.7-2.5-1.4-4.1-2.9-5.7c-1.8-1.9-3.1-4.1-5.1-5.9c-1.7-1.6-3.7-2.9-5.4-4.5
			c-4.6-4.4-7.1-10.6-11.4-15.2c-2.3-2.4-5.2-4.7-5.8-8c-0.2-1.1-0.1-2.2-0.5-3.3c-0.3-0.9-1-1.7-1.7-2.4
			c-5.7-6.5-11.1-13.2-16.5-19.9c-1.7-2.1-3.5-4.3-4.4-6.9c-0.7-2-0.9-4.1-2-5.9c-1.1-1.7-2.8-2.8-4.4-4.1c-4.6-3.9-3-9.8-4.7-15
			c-0.9-2.7-2.5-5-4-7.4c-4.6-7.8-7-16.8-11.7-24.6c-1.5-2.6-3.3-5-4.2-7.9c-0.6-2-0.7-4.2-1.5-6.2c-0.9-2.4-2.8-4.3-3.8-6.6
			c-1.5-3.3-1.2-7.3-3-10.5c-1.3-2.3-3.5-4-4.2-6.4c-0.3-1-0.5-2.2-1.3-2.9c-0.9-0.8-2.3-0.6-3.3,0c-2.8,1.6-3.4,5.3-3.3,8.5
			c0.2,3.2,0.9,6.5-0.2,9.5c-2,5.2-2,10.4-5.2,14.9c-3.3,4.5-7.6,8.1-12,11.5c-1.6,1.3-3.3,2.5-5.2,3.4c-2.5,1.2-5.4,1.8-7.7,3.3
			c-1,0.7-1.9,1.6-3,2.1c-1.3,0.7-2.8,0.9-4.2,1.1c-4.4,0.4-8.8,0.3-13.2-0.5c-2.7-0.5-5.5-1.2-8.2-0.8c-2.1,0.3-4.1,1.2-6.1,1.8
			c-2,0.6-4.3,0.9-6.3,0.1c-1-0.5-1.9-1.3-2.9-1.8c-2.3-1.2-5.1-1-7.7-0.8c-2,0.2-4,0.3-6.1,0.5c-5.5-0.6-10.5-0.7-16-1.2
			c-2-0.2-4.1-0.4-6,0.5c-2.3,1.1-4.2,3.9-6.7,3.5c-0.8-0.2-1.6-0.7-2.3-1.1c-5.4-3.5-12.4-4.3-18.5-2.3c-1.2,0.4-2.4,0.9-3.7,1.1
			c-3.9,0.5-8.1-2.5-11.7-0.9c-2.1,0.9-3.5,3.1-5.7,3.5c-1.9,0.4-3.8-0.6-5.7-0.9c-3.7-0.4-7,2.1-9.8,4.5c-3.2,2.7-6.5,5.5-9.7,8.2
			c0.9,0.9,1.5,2,2,3.1c0.9,2.1,1.2,4,1.7,6.2c0.6,2.3,3.4,2.3,5,3.6c2.5,2,3.3,5.2,5.4,7.4c1.2,1.3,2.9,2.1,4.6,1.9
			c6.5-0.7,0.2-8.5,3.2-12.1c3.4,0.5,3.7,6.3,7,6.8c1.9,0.3,3.5-1.5,4.7-3c1.3-1.5,3.3-3,5-2.1c-0.6,2-1.2,4-1.8,6
			c-0.3,0.9-0.5,1.9-0.1,2.8c0.3,0.6,0.9,1,1.5,1.4c1.8,1.1,3.6,2.2,5.4,3.3c0.4,0.3,0.9,0.5,1.4,0.5c2,0,1.9-3.5,3.8-4.4
			c1-0.5,2.4,0.1,3,1.1c0.7,1,0.8,2.2,1,3.3c1.1-1.1,2.3-2.3,3.9-2.7c1.5-0.5,3.5,0,4.2,1.4c0.4,0.8,0.3,1.7,0.2,2.5
			c-0.2,2.7-0.8,5.5-0.3,8.1c0.4,2.7,2.1,5.4,4.8,6c1.8,0.4,3.7-0.2,5.6-0.3c1.9-0.1,4.1,0.6,4.6,2.4c0.5,2.1-1.5,4.8,0.2,6.1
			c0.5,0.4,1.3,0.5,1.9,0.6c4.3,0.6,8.3,4.7,7.3,8.9c-0.7,3.1-3.6,5-6.2,6.7c-2.4,1.5-4.8,3-7.3,4.5c-0.8,3.1,1.8,6.1,2,9.3
			c0.2,3.6-6.4,9-3.7,12c1.1-0.3,2.2-0.6,3.3-0.5c1.1,0.1,2.2,0.7,2.6,1.7c0.4,1,0.1,2.1-0.2,3.1c-0.6,1.7-4,9-3.3,10.5
			c1.4,2.7,5-0.6,6.8-1.4c2.7-1.2,6-0.5,8.5,1c2.6,1.5,4.6,3.8,6.5,6c2.3,2.6,4.3,2.8,7.7,3c3.4,0.2,7-0.2,10.1,1.2
			c2.4,1.1,4.4,3.9,3,6.1c-1.4,2.2-5,1.8-6.9,3.7c-1.4,1.4-1.3,3.8-0.6,5.7c0.8,1.9,2.1,3.5,2.9,5.4c1.7,3.9,0.9,8.8-1.9,12
			c-1.1,1.3-2.5,2.3-3.3,3.8c-1.5,3,0.1,6.5,0.7,9.9c0.8,4.8-1.2,10.4-5.6,12.5c1.3-0.6,1.2,1.7,0.8,4.3
			C241.2,257.4,241.6,264.7,245.5,266.4z"/>
		<g>
			<path class="st0" d="M244.3,625.9c-1.9-4.4-8.3-5.3-10.2-9.7c-0.5-1.2-0.6-2.4-1-3.6c-1.7-4.2-7.3-5.1-10.7-8.2
				c-4.3-3.7-4.6-10.1-5.7-15.7c-1.1-5.6-3.3-11.3-8-14.6c-4.7-3.3-12.1-3-15.2,1.8c-1,1.6-2,3.9-3.9,3.8c-1.6,0-2.8-1.8-4.4-1.8
				c-2.3-0.1-3.4,3.2-5.7,3.8c-0.8,0.2-1.6,0.1-2.4-0.1c-3.9-1-8.1-3.1-11.7-1.2c-1.1,0.6-2.3,1.5-3.4,0.8c-0.9-0.6-0.8-2-1.5-2.7
				c-1.2-1.2-3.2,0-4.7,0.9c-3.9,2.4-9.2,2.1-12.8-0.7c-0.4-0.3-0.8-0.7-0.9-1.2c-0.2-0.9,0.6-1.6,1.2-2.3c1.6-1.7,2.7-4.5,1-6.1
				c-1.7-1.6-5.1-0.9-6-3c-0.7-1.7,0.9-3.4,1.5-5.2c0.5-1.8-0.3-3.9-1.8-4.9c-1.6-1-3.8-0.8-5.2,0.5c-2.5,2.3-2.3,7.4-5.6,8.2
				c-3.3,0.8-5.2-3.4-6.9-6.3c-2.3-3.7-6.6-6.2-11-6c-4.4,0.2-8.6,3.3-9.8,7.5c-0.5,1.6-0.6,3.2-1.2,4.8c-1.4,3.7-5.5,6.3-5.6,10.2
				c-1.5-1-3.6-0.7-5,0.3c-1.5,1-2.4,2.6-3.4,4.1c-0.6-1.3-1.3-2.8-2.5-3.6c-1.2-0.9-3.1-1-4.1,0.1c-1.7,1.9,0.2,5-2,6.7
				c-1.6,1.2-5.5,0.3-7-0.8c-4.2-3.1-1.7-9-5.7-12.6c-2.5-2.3-1.1-5.5-4.4-7.6c-1.5-1-3.4-1.5-5.2-1.7c-0.2,0.4-0.3,0.8-0.5,1.1
				c-2.2,5.4-5.6,10.3-6.7,16.1c-0.5,2.4-0.9,5.4-3.2,6.3c-0.7,0.3-1.5,0.3-2.2,0.6c-1.9,0.8-2.5,3.2-2.6,5.3c0,0.6-0.1,1.2-0.4,1.7
				c-0.3,0.4-0.7,0.6-1.1,1c-1.5,1.3-1.4,4,0.1,5.2c0.4,0.3,1,0.6,1.3,1c0.8,0.9,0.5,2.4,1.2,3.4c0.9,1.4,3,1.3,4.5,1.9
				c3.8,1.7,3.6,7.5,6.6,10.3c1.7,1.6,4.4,2.1,5.6,4.2c1.2,2.1,0.3,4.8-1,6.8c-0.5,0.8-1.1,1.7-1.9,2.2c-0.8,0.5-2,0.6-2.8,0.1
				c-1.5-1.1-0.6-3.5-1.4-5.2c-0.5-1.1-1.5-1.8-2.6-2.1c-1.9-0.5-4.2,0.3-5,2.1c-0.8,1.8,0.7,4.3,2.6,4.1c1-0.1,2.2-0.9,3-0.2
				c0.5,0.5,0.5,1.3,0.4,1.9c-0.1,0.7-0.2,1.4-0.3,2.1c-0.1,0.4-0.1,0.8-0.4,1.1c-0.4,0.4-1.1,0.2-1.6,0.2c-1.8-0.1-3.6,1.5-3.7,3.3
				c0,0.5,0,1-0.2,1.5c-0.4,0.8-1.4,0.9-2.2,1.3c-1.9,0.7-3.1,2.9-2.7,4.8c0.4,2,2.3,3.5,4.3,3.5c2,0,3.9-1.6,4.2-3.6
				c0.2-1.1,0-2.2,0.2-3.2c0.2-1,1.3-2.1,2.3-1.7c1-0.5,2.3,0.8,2.4,1.9c0.1,1.1-0.5,2.2-0.9,3.3c-1.1,2.6-1.5,5.5-1.1,8.3
				c0.4,2.8,1.5,5.5,0.9,8.2c-0.7,3.1-3.6,5.5-4,8.7c-0.1,0.6,0,1.3,0.3,1.7c0.3,0.4,0.7,0.6,1.1,0.8c1.2,0.5,2.5,0.4,3.7,0
				c0.9-0.4,1.7-1,2.6-1.4c3.1-1.6,6.8-1,10.2-0.2c0.9,0.2,1.8,0.4,2.5,1c0.7,0.6,1.1,1.7,0.6,2.5c-0.5,0.8-1.6,1-2.5,0.8
				c-0.9-0.2-1.7-0.8-2.6-1.1c-3.5-1.3-7.2,1.2-10.9,2c-1.3,0.3-2.9,0.5-3.6,1.6c-1,1.5,0.2,3.6,1.8,4.4c1.6,0.8,3.5,0.6,5.3,0.6
				c5,0.1,10.2,2,13,6c0.8,1.2,1.4,2.9,0.4,4c-0.8,0.9-2.1,0.9-3.3,0.8c-2.1-0.2-4.5-0.7-5.4-2.6c-0.5-1-0.4-2.2-0.8-3.3
				c-0.8-2.3-3.4-3.4-5.8-3.7c-0.6-0.1-1.3-0.1-1.8,0.2c-1.3,0.6-1.5,2.3-2,3.6c-0.7,2-2.4,3.8-2.4,5.9c0,2.8,2.7,4.7,5.1,5.9
				c2.5,1.2,5.3,2.4,6.3,5c-4.4,1.5-9.7-1-11.3-5.4c-0.8-2.1-0.7-4.5-2-6.4c-0.5-0.7-1.2-1.3-1.7-2c-1-1.5-1.1-3.3-1.2-5.1
				c0-1.8,0-3.6-0.7-5.2c-0.7-1.6-2.5-2.9-4.2-2.5c-1.2,0.3-2,1.3-2.6,2.3c-1.5,2.4-2.4,4.7-2.3,7.6c0.1,2.5,0.3,5,0.8,7.4
				c1,4,2.9,7.7,4.9,11.3c0.5,0.9,1,1.9,1.9,2.5c1.4,1,3.2,1,5,1.3c3.5,0.6,6.7,2.5,9.7,4.5c3.5,2.3,7.2,5,6.7,9.7
				c-0.2,1.7-0.7,3.4-0.5,5.1c0.2,1.7,1.6,3.4,3.3,3.3c0.8-0.1,1.6-0.5,2.4-0.4c1.2,0.2,1.9,1.9,1,2.9c-0.7,0.7-1.8,0.8-2.5,1.5
				c-0.7,0.8-0.6,1.9-0.9,2.9c-0.4,1.3-1.4,2.3-2,3.5c-0.6,1.2-0.4,3,0.9,3.4c2,0.6,3.6-3.2,5.5-2.3c1.2,0.6,1,2.4,0.5,3.7
				c-0.7,1.7-1.4,3.4-1.3,5.3c0,0.4,0.1,0.9,0.3,1.2c0.7,1,2.4,0.7,3.2-0.2c0.9-0.9,1.3-2.1,2-3.1c0.3-0.5,0.8-0.9,1.4-0.9
				c0.7,0,1.2,0.6,1.8,0.9c1.9,1.1,4.5-0.4,5.4-2.5c0.9-2,0.7-4.4,0.7-6.6c0-2.2,0.4-4.7,2.1-6.2c2.3-2,6.1-1.4,8.1-3.6
				c5.6-6.2,11.4-11.9,11.4-20.3c0-2.8-1.1-6.8-0.2-9.4c0.2-0.5,0.6-0.9,1.1-0.8c0.8,0.1,1,1.1,1,1.8c0.1,1.9,0.1,3.9,0.1,5.8
				c0,4.6,0.2,9.1,0.5,13.7c0.1,0.9,0.1,1.9,0.6,2.7c1.1,1.8,3.7,1.9,5.4,3.1c1.2,0.7,2,1.9,3.1,2.7c1.2,0.7,3,0.8,3.6-0.5
				c0.3-0.7,0.2-1.5,0.7-2.1c0.7-0.7,1.9-0.3,2.7,0.3c0.8,0.6,1.8,1.2,2.7,0.8c1.7-0.7,0.6-3.9,2.3-4.8c0.4-0.2,0.8-0.2,1.3-0.3
				c2.6-0.4,4.6-3,4.2-5.6c-0.2-1.2-0.8-2.3-0.6-3.5c0.3-2,2.5-3.1,3.4-5c1.3-2.9-1.1-6.7,0.7-9.2c1.8-2.6,4.3-3.7,7.2-5.1
				c3.7-1.8,6.9-4.5,9.1-7.9c0.6-0.9,1.7-1.8,2.4-1.1c0.2,0.2,0.2,0.5,0.4,0.7c0.3,0.3,0.8,0.3,1.2,0.3c2.8-0.1,6-0.4,8-2.4
				c2.1-2.2,2.2-5.8,4-8.2c0.2-0.3,0.6-0.7,1-0.7c0.6-0.1,1.1,0.5,1.3,1c0.2,0.5,0.2,1.2,0.5,1.7c0.7,1.5,2.7,1.7,4.4,1.7
				c1,0,2.2-0.1,2.7-1c0.3-0.5,0.3-1,0.6-1.5c0.6-1,2.3-0.9,3.1-0.1c0.8,0.9,1,2.1,1.1,3.3c0.1,2-0.1,4-0.7,6c-0.3,1-0.7,2-1.4,2.8
				c-0.7,0.8-1.9,1.2-2.9,0.9c-2.7-1-1.6-6-4.3-6.9c-1.4-0.5-2.9,0.7-3.1,2.1c-0.2,1,0.2,2.1,0,3.1c-0.3,1.6-2,2.7-2.4,4.2
				c-0.2,0.8-0.1,1.7-0.2,2.5c-0.2,0.8-0.8,1.7-1.7,1.5c-0.6-0.1-1-0.7-1.5-1.1c-1-0.8-2.5-0.7-3.4,0.1c-1,0.7-1.5,2-1.4,3.3
				c0.1,1.1,0.5,2.3-0.1,3.2c-0.6,0.9-1.8,1-2.7,1.3c-1.7,0.7-2.8,2.3-3.7,3.9c-0.6,1-1.3,2.2-0.9,3.3c0.5,1.4,2.4,2,2.8,3.5
				c0.1,0.4,0.1,0.9,0.4,1.3c0.3,0.3,0.8,0.4,1.3,0.4c1.5,0.1,2.9,0.1,4.4,0c1.1-0.1,2.8,0.4,3.8,0.1c0.6-0.2,1-0.6,1.5-0.8
				c2.3-1.1,4.9,0.4,6.9,1.8c0.5,0.3,1,0.7,1.1,1.3c0.2,0.9-0.6,1.9-0.2,2.7c0.4,0.9,1.7,0.9,2.5,1.4c1.5,1.1,0.9,4.3,2.7,4.6
				c1.1,0.2,1.9-1.1,2.1-2.2c0.2-1.1,0.3-2.4,1.2-3.1c1.1-0.9,2.7-0.3,4.1-0.3c1.7,0,3.3-1,4-2.4c0.2-0.5,0.4-1,0.8-1.3
				c0.5-0.6,1.3-0.7,2-1.1c1.8-0.9,2.9-3.1,2.5-5.1c-0.1-0.6-0.4-1.3-1-1.6c-1.1-0.6-2.9,0.4-3.7-0.5c-0.5-0.6-0.3-1.5-0.6-2.1
				c-0.4-0.8-1.4-1-2.2-0.8c-0.8,0.2-1.5,0.7-2.2,1.3c-0.3,0.2-0.6,0.5-0.9,0.5c-0.6,0.1-1.1-0.4-1.4-1c-0.7-1.6,0.4-3.5,2-4.2
				c1.6-0.6,3.5-0.2,4.9,0.7c0.5,0.3,1,0.7,1.6,0.7c0.5,0,0.9-0.3,1.4-0.4c0.9,0,1.5,0.8,2.1,1.5c0.6,0.7,1.7,1.3,2.3,0.7
				c0.4-0.4,0.4-1.1,0.8-1.4c0.6-0.5,1.5-0.1,2.2,0.1c1.9,0.5,4-0.4,4.9-2.1c0.9-1.7,0.5-4-0.9-5.3c-1.1-1-2.8-1.5-3.4-2.8
				c-0.2-0.4-0.3-0.9-0.5-1.4c-0.4-1-1.3-1.7-2.1-2.4c-3.1-2.6-6-5.3-8.7-8.3c-1.1-1.2-2.3-2.9-1.8-4.4c0.5-1.4,2.2-2.3,2.1-3.8
				c-0.1-1.4-2-2.5-1.5-3.8c0.2-0.5,0.7-0.8,0.9-1.3c0.5-1.1-0.5-2.3-1.3-3.2c-0.9-0.9-1.6-2.4-0.6-3.2c0.6-0.5,1.6-0.3,2.3,0.1
				c0.7,0.4,1.3,1,2.1,1.2c0.8,0.2,1.8-0.2,1.9-1c0.9-1.1,2.6-1.5,4.1-1.5c1.4,0,2.8,0.3,4.2,0c1.4-0.3,2.7-1.5,2.6-2.9
				c0-0.5-0.3-1-0.1-1.5c0.3-1.1,2.1-0.9,2.8,0c0.6,1,0.5,2.3,0.6,3.4c0.2,1.7,0.9,3.3,1.7,4.9c0.4,0.8,0.8,1.5,1.3,2.2
				c0.9,1,2.1,1.7,3.1,2.5c1.9,1.6,3.2,4,3.4,6.5c0.1,2.5-0.9,5.1-2.9,6.6c-0.8,0.6-1.7,1.1-2.2,2c-0.4,0.7-0.4,1.5-0.3,2.3
				c0,2.6,0.5,5.9,3,6.7c1.2,0.4,2.5,0.1,3.7,0.6c1.9,0.8,2.9,3.8,4.9,3.4c1.7-0.3,2.1-2.6,1.8-4.3c-0.3-2.1-1-4.1-2-5.9
				c-0.4-0.8-0.9-1.6-1-2.5c-0.1-0.9,0.2-1.9,1-2.3c0.5-0.2,1-0.2,1.5-0.3c1.3-0.2,2.4-1.3,2.7-2.6c0.2-0.9,0.1-1.9,0.3-2.9
				c0.2-0.9,1.2-1.8,2.1-1.4c1.2,0.5,0.6,2.4,1,3.7c0.4,1.4,2.1,2,3.6,2.3c0.5,0.1,1.1,0.2,1.7,0.1c1.8-0.5,1.7-3.4,3.4-4.2
				c0.4-0.2,0.9-0.3,1.3-0.5c1.2-0.7,1.1-2.5,0.6-3.8c-0.4-1.3-1-2.9-0.1-4c0.4-0.5,1.1-0.8,1.7-1.2c1-0.7,1.6-1.9,1.8-3.2
				c0.4-2.6-1.2-5.4-3.6-6.5c-2.4-1.2-5.4-0.8-7.5,0.8c-1.5,1.1-2.7,2.7-4.3,3.6c-2.4,1.2-5.8,0.3-7.2-2.1c-0.4-0.6-0.7-1.3-1.3-1.7
				c-0.4-0.3-0.9-0.4-1.2-0.6c-1.5-1.1,0-3.6-0.5-5.4c-0.4-1.3-1.9-2.4-1.5-3.8c0.3-1.2,2-1.5,3.1-0.9c1.1,0.5,2,1.5,3,2.1
				c2.8,1.7,7.1,0,8-3.1c0.3-0.9,0.3-1.8,0.7-2.6c1-1.7,3.3-2,5.3-2.1c1.3,0,2.7-0.4,4.1-0.5C241.8,636.7,246.4,630.7,244.3,625.9z"
				/>
			<path class="st0" d="M223.7,578.7c1.2-2.2,1-4.9,0.4-7.3c-0.3-1.5-0.7-3.4,0.3-4.5c0.6-0.7,1.5-0.9,2.3-1.3
				c2.5-1.1,4.3-4.9,2.1-6.5c-1.1-0.8-2.7-0.8-3.3-2c-0.5-0.9-0.1-1.9,0.2-2.9c1.2-4.1,0-8.9-3-12c-0.9-0.9-1.9-1.6-2.5-2.7
				c-1.3-2.3-0.5-5.1,0.4-7.6c1.8-5.2,3.7-10.4,5.5-15.6c0.5-1.4,1-2.8,1.7-4c0.7-1.2,1.7-2.3,2-3.7c0.6-2.8-1.3-6.4,1-8.1
				c1.1-0.8,2.7-0.6,4-1.1c3.1-1.1,3.9-5.4,6.7-7.1c1.5-0.9,3.4-1,4.9-1.9c1.7-1.2,2.5-3.5,4.4-4.5c2.4-1.2,6.2,0.2,7.6-2.1
				c1-1.8-0.5-4.2,0.2-6.1c0.5-1.4,2.1-2.1,3.1-3.2c2.1-2.1,2-5.7,0.6-8.3c-1.4-2.6-3.7-4.6-6-6.5c-1.1-0.9-2.3-1.8-3.6-1.7
				c-2.8,0.1-4.7,4.3-7.4,3.6c-2-0.5-2.6-3.3-4.5-3.9c-2.5-0.8-6.2,1.9-7.3-0.4c-0.4-0.9,0-2.1-0.6-2.9c-1-1.4-3.1-0.2-4.4,1
				c-5.7,5.3-13.1,8.6-20.9,9.4c-4.9,0.5-10.3-0.3-13.7-3.9c-2.3-2.4-3.5-5.9-6.3-7.7c-1.9-1.2-4.4-1.6-5.5-3.5
				c-1.4-2.3,0-5.9-2-7.7c-1.6-0.3-3,1.1-4.4,2.1c-3.6,2.7-8.3,3-12.7,3.2c-5.4,0.3-12-0.2-14.3-5.1c-0.7-1.6-1-3.6-2.5-4.4
				c-1.4-0.7-3.1-0.1-4.6,0.2c-5.7,1-11.6-3.4-17-1.2c-4.4,1.8-6,7.2-8.3,11.3c-2,3.6-5.1,6.7-8.6,8.8c0,0,0.1,0,0.2,0.1
				c0.4,0.3,0.6,0.9,0.3,1.4c-0.2,0.3-0.6,0.4-1,0.4c-2.5,0.3-5.6-0.3-7,1.8c-0.6,0.8-0.7,1.8-1.2,2.6c-1.2,1.9-3.9,1.9-6.1,1.9
				c-2.9,0-5.8,0.2-8.5,1.4c-0.9,0.4-1.9,0.9-2.9,1.1c-1.4,0.2-2.9-0.2-4.3-0.4c-1.6-0.2-3.2,0.1-4.8,0.6c-0.5,0.2-3.5,0.4-3.6,0.5
				c-1.9,2,4.6,4.6,5.7,4.6c1.9,0,4.3-0.5,5.1,1.1c0.3,0.6,0.2,1.4,0.2,2.1c-0.2,1.3-0.4,2.7-0.1,4.1c0.2,1.3,1,2.7,2.3,3.2
				c3.5,1.4,6.9-4,10.4-2.8c1.5,0.5,2.1,0.7,3.7,1.1c1.6,0.4,3.3,0.8,4.8,0.3c2.4-0.8,3.8-3.7,6.4-4.1c1.1-0.2,2.5,0.5,2.3,1.6
				c-0.2,1.2-1.7,1.3-2.7,2c-1.8,1.3-1.5,4.8-3.6,5.5c-0.6,0.2-1.2,0.2-1.7,0.1c-1.7-0.1-3.4-0.3-5.1-0.4c-1.3-0.1-2.7-0.2-3.7,0.7
				c-1.1,1-1,3-0.1,4.2c0.9,1.3,2.3,2,3.7,2.7c2.2,1.1,4.3,2.3,6.5,3.4c0.9,0.5,0.8,0.9,0.9,1.9c0.1,1-0.7,2.1-1.7,2
				c-0.9-0.1-1.4-0.9-2-1.5c-1.3-1.3-3.3-1.5-5.2-1.6c-2.2-0.1-4.4-0.2-6.6-0.2c-2.2,0-4.7,0.2-6,1.9c-1.5,1.9-0.8,4.7-1.3,7
				c-0.4,2-1.8,3.7-3.6,4.6c-1.8,0.9-3.9,1-5.5,2.2c-0.7,0.6-1.3,1.3-1.8,2c-2.9,3.6-6.7,6.5-11,8.4c-0.6,0.2-1.1,0.5-1.6,0.9
				c-0.9,0.9-0.9,2.3-0.4,3.4c0.5,1.1,1.4,2,2.3,2.8c0.9,0.8,1.8,1.5,2.7,2.3c0.5,0.4,1.1,0.9,1.7,1c0.8,0.2,1.7-0.1,2.5-0.3
				c5.5-1.7,11.5-2.1,17.2-1.2c1.2,0.2,2.7,1,2.3,2.1c-0.3,0.9-1.5,0.9-2.5,0.9c-1.7,0.1-3.4,1-4.5,2.3c-0.7,0.9-1.2,2-2.1,2.6
				c-1.1,0.7-2.5,0.5-3.7,0.5c-4.4-0.1-8.7,1.9-11.9,4.9c-4,3.8-5.5,8.5-7.5,13.4c1.9,0.2,3.7,0.7,5.2,1.7c3.3,2.1,1.8,5.3,4.4,7.6
				c4,3.6,1.4,9.6,5.7,12.6c1.5,1.1,5.4,2,7,0.8c2.2-1.6,0.3-4.8,2-6.7c1-1.1,2.9-1,4.1-0.1c1.2,0.9,1.9,2.3,2.5,3.6
				c0.9-1.5,1.9-3.1,3.4-4.1c1.5-1,3.6-1.4,5-0.3c0.2-3.9,4.2-6.5,5.6-10.2c0.6-1.5,0.7-3.2,1.2-4.8c1.3-4.2,5.5-7.2,9.8-7.5
				c4.4-0.2,8.7,2.3,11,6c1.8,2.9,3.6,7.1,6.9,6.3c3.3-0.8,3.1-5.9,5.6-8.2c1.4-1.3,3.6-1.5,5.2-0.5c1.6,1,2.4,3.1,1.8,4.9
				c-0.5,1.8-2.2,3.5-1.5,5.2c0.9,2.1,4.4,1.4,6,3c1.6,1.6,0.6,4.5-1,6.1c-0.6,0.6-1.4,1.4-1.2,2.3c0.1,0.5,0.5,0.8,0.9,1.2
				c3.6,2.8,9,3.1,12.8,0.7c1.5-0.9,3.5-2.1,4.7-0.9c0.7,0.8,0.7,2.2,1.5,2.7c1,0.7,2.3-0.2,3.4-0.8c3.6-1.9,7.8,0.2,11.7,1.2
				c0.8,0.2,1.6,0.4,2.4,0.1c2.3-0.6,3.3-3.9,5.7-3.8c1.6,0.1,2.8,1.8,4.4,1.8c1.9,0,2.9-2.2,3.9-3.8c3.1-4.8,10.5-5.1,15.2-1.8
				c3.2,2.3,5.3,5.7,6.6,9.5C218.8,582.7,222.1,581.7,223.7,578.7z"/>
		</g>
		<path class="st0" d="M264.7,455.3c0.9-0.3,1.9-0.1,2.8-0.3c2.2-0.4,3.6-2.6,4.2-4.8s0.6-4.5,1.5-6.6c0.8-1.9,2.3-3.4,2.9-5.4
			c0.5-1.6,0.3-3.4-0.1-5.1c-0.3-1.4-0.7-3.1,0.4-3.9c1-0.7,2.3,0,3.5,0.2c2,0.4,4.3-0.8,5.1-2.7c-1.9-1-2.5-3.4-3.1-5.4
			c-0.6-2.1-2.1-4.3-4.3-4.1c-1.7,0.2-2.9,1.9-4.6,2c-1.6,0.1-2.9-1.2-3.9-2.4c-1.1-1.3-2.2-2.7-3.7-3.6c-1.5-0.9-3.5-1.1-4.9,0
			c-0.8,0.6-1.3,1.5-2.1,1.9c-2.2,1-4.3-2.2-3.6-4.5c0.7-2.3,2.7-4.1,3.6-6.3c0.8-1.9,0.8-4.1,0.8-6.2c0.1-7.4,1.1-14.8,3-22
			c0.6-2.4,1-5.5-1.1-6.8c-0.9-0.5-2.1-0.5-3-1.2c-1.2-0.9-1.3-2.7-2.3-3.9c-1.9-2.4-6.8-1.6-7.5-4.6c-0.6-2.2,2-4,4.3-4.4
			c2.3-0.5,5-0.7,6.2-2.7c1.6-2.6-0.2-7.1,2.6-8.2c0.9-0.3,1.9-0.1,2.8-0.1c3.5,0.1,6.8-2.9,6.9-6.4c0.5,2,3.2,2.3,5.2,1.7
			c2-0.5,4.1-1.4,5.9-0.4c1.5,0.9,3.5,2.9,4.5,1.5c0.8-1.1-0.7-2.3-1.7-3.2c-2.4-2.2-3.6-9.2-1.4-11.9c1.6-1.8,8.6-4,11-3.9
			c2,0,4,0.6,5.9,0.3c5.3-1,8.1-7.3,13.9-6.2c3.3,0.6,6,3.3,7.1,6.5c0.3,1,0.6,2.1,1.4,2.7c0.7,0.5,1.7,0.5,2.5,0.4
			c3.4-0.3,6.8-1.2,9.9-2.7c1.2-0.5,2.3-1.2,3.1-2.2c3-3.9-1.1-9.5-0.2-14.3c0.8-4.5,5.6-6.8,9.8-8.6c4.2-1.8,9-4.3,9.5-8.8
			c0.1-1,0-2,0.3-3c1.1-3.3,5.6-3.3,8.9-4.5c1.5-0.5,2.8-1.5,3.9-2.6c-0.4-0.3-0.7-0.5-1.1-0.7c-3.7-1.9-8.3-1-12.1-2.6
			c-4.2-1.8-7.3-6.7-11.9-6.5c-3.2,0.2-6.4,2.8-9.2,1.3c-2-1-2.5-3.7-4.3-5c-2.4-1.7-5.8-0.4-8.6,0.4c-2.9,0.8-7.1,0-7.2-3
			c-0.1-2.3,2.3-3.7,4.1-5.1c1.7-1.4,2.8-4.7,0.7-5.6c-2.3,1.6-5,3.2-7.6,2.5c-2.1-0.6-3.5-2.4-5.2-3.7c-1.7-1.3-4.4-2-5.8-0.4
			c-1.1,1.2-1.6,3.6-3.1,3.2c-0.8-0.2-1.1-1.1-1.7-1.6c-1.6-1.5-4.2-0.1-5.5,1.6c-1.3,1.7-2.3,3.9-4.4,4.6c-3,0.9-5.7-2.1-7.2-4.9
			c-1.5-2.7-3.7-6-6.8-5.7c-2.9,0.2-4.6,3.5-5.2,6.4s-0.7,6.1-2.8,8.3c-1.6,1.7-4.1,2.2-6.4,2.7c-4,0.8-10.1,3.4-14,1.7
			c-3.8-1.7-4.3-9-6.5-12.9c-0.4,2.7-1.3,5.6-1.4,5.9c-1.4,2.9-2,7.4-6.3,6.8c-2.2-0.3-4.1-1.9-5.8-3.4c-1.8,1.1-0.7,3.8-0.2,5.8
			c0.9,3.6-1.5,7.7-5.1,8.7c-2.5,0.7-5.8,0.3-7,2.5c-0.4,0.8-0.5,1.7-1,2.4c-1.7,2.4-5.5,0.3-8.3,1.1c-4,1.2-4.5,7.7-8.5,8.6
			c-2.1,0.5-4.8-0.6-6,1.2c-0.8,1.3,0,3-0.2,4.5c-0.3,2.3-3,3.4-5.3,3.8c-2.3,0.4-4.9,0.8-6.2,2.7c-1.1,1.6-1.3,4.3-2.8,5.1
			c0.6,2.6,1.8,4.9,4.1,6c0.9,0.5,2,0.7,2.7,1.5c0.8,0.8,1,2,1.6,2.9c1,1.6,2.9,2.2,4.5,3.2c3.3,2,5.5,5.8,5.6,9.6
			c0,1.6-0.7,3.7-2.3,3.7c-1.8,0.1-2.7-2.2-4.3-2.8c-2.2-0.8-4.1,1.7-5.1,3.7c-2.1,4.2-4,8.4-5.9,12.6c-0.8,1.8-1.6,3.8-0.9,5.6
			c0.6,1.4,2.1,2.3,2.7,3.7c1.1,2.3-0.3,5.5,1.3,7.4c2.1,2.5,7.4,0.7,8.6,3.8c-2,0.7-2.1,3.7-1.1,5.6c1,1.9,2.7,3.5,3.1,5.6
			c0.1,0.9,0.1,2,0.8,2.6c1.4,1.3,3.4-0.9,5.3-1.3c1.9-0.3,3.6,1.5,4.4,3.3c0.7,1.8,1,3.9,2.3,5.4c1.2,1.5,4,2.1,5,0.3
			c0.8-1.5,0.3-4.2,2-4.3c0.7,0,1.3,0.6,1.6,1.2c1.5,2.8,0.7,6.3-0.8,9.1c-1.4,2.8-3.4,5.4-4.1,8.5c-0.3,1.6-0.3,3.3-0.8,4.9
			c-0.4,1.3-1.1,2.5-0.8,3.8c0.8,3,5.7,2.3,7.6,4.7c1.3,1.6,0.8,4.4,2.4,5.7c1,0.9,2.5,0.8,3.7,1.5c2.2,1.2,2.4,4.3,1.9,6.8
			c-0.5,2.5-1.5,5.1-0.6,7.4c1.2,3.2,5.3,4.9,5.6,8.3c0.1,1.2-0.3,2.4,0.1,3.5c0.4,1.1,1.5,1.7,2.3,2.5c0.1,0,0.1,0.1,0.1,0.1
			c0.2-0.2,0.4-0.3,0.6-0.5c1.3-1.2,3.4-2.4,4.4-1c0.6,0.8,0.1,2,0.6,2.9c1.1,2.3,4.8-0.4,7.3,0.4c1.9,0.7,2.6,3.4,4.5,3.9
			c2.8,0.7,4.6-3.5,7.4-3.6c1.4-0.1,2.6,0.9,3.6,1.7c0.8,0.7,1.6,1.4,2.4,2.1c1.2-1.7,2.6-3.4,4-5
			C263.3,456.2,263.9,455.6,264.7,455.3z"/>
		<g>
			<path class="st0" d="M160.2,337.4c-2.6,0-4.5,2.7-4.7,5.3c-0.2,2.6,0.8,5.1,1.6,7.6c1.8,6,2,12.4,0.5,18.5
				c-0.8,3.5-2.2,7.4-0.5,10.6c0.9,1.6,2.4,2.8,3.7,4.2c2.5,2.7,3.9,6.3,4,9.9c0.1,3.6-1,7.6,1.1,10.5c1.3,1.8,3.3,2.6,5.5,3.3
				c0-0.2,0.1-0.4,0.1-0.6c0.5-2.9,1-5.8,1.4-8.7c0.5-2.8,1.2-5.9,3.7-7.3c2-1.1,4.7-0.5,6.6-2c1.5-1.2,1.9-3.3,2.4-5.2
				c0.5-1.8,1.4-3.6,2.5-5.2c-0.5-0.8-1.1-1.5-1.5-2.3c-1-1.9-0.9-4.9,1.1-5.6c-1.1-3.1-6.4-1.3-8.6-3.8c-1.7-1.9-0.3-5.1-1.3-7.4
				c-0.6-1.4-2.1-2.3-2.7-3.7c-0.8-1.8,0.1-3.9,0.9-5.6c0.7-1.6,1.4-3.2,2.2-4.8c-4.8-0.8-9.4-2.7-13.4-5.5
				C163.3,338.6,161.9,337.4,160.2,337.4z"/>
			<path class="st0" d="M227.7,455.7c-0.9-0.7-1.9-1.4-2.3-2.5c-0.4-1.1,0-2.3-0.1-3.5c-0.3-3.4-4.5-5.1-5.6-8.3
				c-0.9-2.4,0.1-5,0.6-7.4c0.5-2.5,0.3-5.6-1.9-6.8c-1.2-0.6-2.7-0.6-3.7-1.5c-1.6-1.3-1.1-4.1-2.4-5.7c-1.5-1.9-4.8-1.9-6.5-3.2
				c-0.6,2.5-1,5.2-3,6.4c-0.9,0.6-2.1,0.8-2.9,1.6c-0.9,0.9-1.1,2.2-1.5,3.3c-0.5,1.1-1.5,2.3-2.7,2c-1.1-0.3-1.4-1.6-1.7-2.7
				c-1.1-4.5-3.1-8.9-5.9-12.7c-2.5,1.5-3.1,4.9-3.1,7.8c0,2.9,0.1,6.2-1.8,8.5c-3.9-2.1-6.7-6.1-7.4-10.5c-0.3-1.9-0.2-4-1.4-5.5
				c-0.6-0.8-1.4-1.3-2-2c-1.2-1.6-1.1-3.7-0.8-5.8c-2.1-0.7-4.2-1.5-5.5-3.3c-2.1-2.9-1-6.9-1.1-10.5c-0.1-3.7-1.5-7.3-4-9.9
				c-1.3-1.4-2.8-2.5-3.7-4.2c-1.7-3.2-0.4-7.1,0.5-10.6c1.4-6.1,1.2-12.5-0.5-18.5c-0.7-2.5-1.8-5-1.6-7.6c0.2-2.6,2.1-5.3,4.7-5.3
				c1.7,0,3.1,1.2,4.5,2.2c4,2.8,8.6,4.7,13.4,5.5c1.2-2.6,2.4-5.3,3.7-7.9c1-2.1,2.9-4.5,5.1-3.7c1.7,0.6,2.6,2.9,4.3,2.8
				c1.6-0.1,2.4-2.1,2.3-3.7c-0.1-3.9-2.3-7.6-5.6-9.6c-1.6-1-3.5-1.6-4.5-3.2c-0.6-0.9-0.8-2.1-1.6-2.9c-0.7-0.7-1.8-1-2.7-1.5
				c-2.3-1.2-3.5-3.5-4.1-6c-0.2,0.1-0.4,0.2-0.7,0.2c-2.3-3-5.1-6.2-8.8-6.6c-1.3-0.1-2.6,0.1-3.7-0.6c-1.4-0.8-1.8-2.7-2.8-3.8
				c-2.4-2.7-6.8-1-10.1,0.5c-3.5,1.6-7.2,2.8-11,3.7c-2,0.5-4.8,0.4-7.2,0.9c-0.5,0.8-1.2,1.6-2.1,2.1c-2.5,1.7-5.8,1.9-8.7,2.8
				c-3,0.9-6.1,3-6.1,6c0,1,0.3,1.9,0.2,2.9c-0.1,1-0.8,2-1.7,1.9c-1.3,0-1.7-1.8-1.7-3c-0.1-4.8-0.1-9.7-1.7-14.2
				c-1.7-4.5-5.5-8.5-10.3-8.9c-1.9-0.1-4.2,0.2-5.5-1.2c-0.6-0.6-0.9-1.6-1.7-1.8c-0.8-0.3-1.7,0.3-2.5,0.8
				c-2.7,1.5-6.5,0.9-8.6-1.4c-1.4-1.5-2.3-3.8-4.3-4.4c-1.5-0.5-3.3,0.2-4.7-0.6c-1.4-0.7-1.8-2.5-2.9-3.6c-2.2-2.3-6.5-0.9-7.8,2
				c-1.3,2.9-0.2,6.4,1.8,8.9c0.6,0.7,1.2,1.4,1.5,2.2c0.3,0.9,0.1,2-0.8,2.4c-1.6,0.7-2.6-1.6-3.3-3.2c-1.2-2.7-4-4.3-6.8-4.9
				c-2.8-0.6-5.8-0.2-8.6,0.3c-1.2,0.2-2.4,0.4-3.3,1.1c-1,0.7-1.6,1.9-1.2,3c0.6,1.7,3,1.9,4.3,3.1c1.6,1.6,1.2,4.7,3,6.1
				c1.5,1.2,3.8,0.6,5.5,1.4c2.4,1.2,2.1,5.4-0.4,6.3c-1.2,0.4-2.5,0.2-3.7,0.3c-1.2,0.1-2.7,0.7-2.9,1.9c-0.1,0.7,0.2,1.4,0.1,2.1
				c-0.2,2.8-5.2,2.6-6.2,5.3c-0.3,0.9-0.2,2.2-1.1,2.7c-0.4,0.2-0.8,0.2-1.2,0.1c-2.1-0.7-2.3-3.7-1.4-5.8c0.9-2,2.6-3.8,2.9-6
				c0.2-1.6-0.4-3.1-0.9-4.7c-1.1-3.6-1.7-7.3-1.8-11.1c-1.4-0.8-2.5,1.3-2.7,2.9c-0.4,3.6-0.8,7.2-1.2,10.8c-0.2,1.4-0.3,2.8-1,4
				c-0.7,1.2-2,2.1-3.4,1.9c-2.8-0.5-2.7-4.6-4.3-7c-0.3-0.4-0.6-0.7-1-0.8c-1-0.1-1.4,1.2-1.5,2.2c-0.2,2.9-0.4,5.8-0.6,8.7
				c0,0.7-0.1,1.4,0.2,2c0.5,1.2,2.2,2,1.8,3.3c-0.4,1.5-2.7,0.9-3.7-0.2c-1-1.1-2.3-2.7-3.7-2.2c-1.6,0.6-1.3,2.8-1.1,4.4
				c0.2,1.6-0.7,4-2.2,3.4c-1.2,0-1.8,0.8-2.3,1.9c-0.5,1.1-0.3,2.5,0.5,3.4c0.3,0.3,0.7,0.6,0.9,1c0.6,1-0.1,2.2-0.6,3.2
				c-0.5,1-0.9,2.4-0.1,3.2c1.1,1,2.8-0.4,3.2-1.8c0.4-1.4,0.4-3.1,1.5-4.1c1.4-1.2,3.7-0.4,5.2,0.7c1.3,1,2.5,2.6,1.9,4.2
				c-1.1,2.6-6,1.3-7.2,3.9c-0.8,1.8,1.4,3.8,3.4,3.6c2-0.2,3.5-1.7,4.9-3.1c1.4-1.4,2.8-2.9,4.2-4.3c0.6-0.6,1.3-1.2,2-1
				c0.8,0.2,1.1,1.3,0.9,2.2c-0.2,1.1-0.7,2.2-0.9,3.4c-0.2,1.1,0,2.5,1,3.1c0.5,0.3,1,0.3,1.6,0.5c2.2,0.6,3.6,3.2,3.1,5.4
				c-0.3,1.3-1.1,2.4-1.7,3.5c-0.6,1.2-0.8,2.7-0.1,3.7c0.9,1.2,2.6,1.2,3.8,2.1c1.9,1.4,1.7,4.2,1.6,6.6c-0.3,6,1.3,11.9,2.8,17.7
				c0.4,1.6,0.9,3.3,2,4.5c2.1,2.3,5.6,2.4,8.7,2.3c0.4,0,0.8,0,1.2-0.2c0.3-0.2,0.6-0.5,0.8-0.8c1.8-2.8,1.1-6.5,0.1-9.7
				c-2.1-6.2-5.4-12-6.8-18.5c-0.3-1.5-0.5-3.1-1-4.6c-0.6-1.7-1.5-3.3-2.4-4.9c-1.8-3.5-2.9-7.4-3.4-11.3c-0.1-0.9,0.3-2.3,1.2-2.1
				c0.3,0.1,0.6,0.4,0.8,0.7c1.4,2.3,1.3,5.1,1.5,7.8c0.3,2.6,1.3,5.6,3.8,6.5c1.6,0.6,3.6,0.3,4.8,1.5c0.3,0.3,0.6,0.8,1,0.9
				c0.3,0,0.7-0.2,0.9-0.4c1.5-1.4,1.6-3.7,1.3-5.7c-0.3-2-0.8-4.1-0.2-6c0.1-0.4,0.3-0.8,0.7-1.1c0.6-0.4,1.4-0.2,1.9,0.3
				c0.5,0.5,0.7,1.2,0.9,1.9c0.8,3.7-0.1,7.5-0.7,11.3c-0.6,3.7-0.9,7.8,0.9,11.1c0.8,1.4,1.9,2.7,2.4,4.2c0.9,2.9-0.7,6.2,0.4,9.1
				c0.6,1.7,2.2,3,2.4,4.7c0.4,3-2.9,5.8-1.9,8.6c1,3.1,5.9,3,7.5,5.8c0.6,1.1-0.3,1.3-1.5,1.7c-1.2,0.4-2.7,0.4-3.7,1.2
				c-1.4,1.2-0.9,3.6,0.2,5c1.2,1.5,2.8,2.4,4,3.9c1.1,1.5,1.6,3.8,0.2,5c-0.4,0.3-0.8,0.5-1.1,0.8c-1.3,1-1.6,3-0.7,4.3
				c0.5,0.7,1.2,1.1,1.7,1.8c0.5,0.6,0.9,1.5,0.5,2.2c-0.5,0.9-1.8,0.9-2.5,1.6c-1.1,1.1-0.3,3.4-1.5,4.4c-0.5,0.4-1.3,0.4-1.9,0.8
				c-1.2,0.6-1.3,2.6-0.2,3.4c2,1.5,4.9-1.5,7.3-0.6c1.8,0.6,2.7,3.3,4.6,3.3c0.5,0,1.1-0.2,1.6-0.2c1.8,0.1,2.1,2.7,3.3,4.1
				c0.8,1,2.3,1.4,2.8,2.6c0.6,1.4-0.6,3-0.3,4.5c0.3,1.7,2.2,2.7,2.8,4.3c0.3,0.8,0.3,1.6,0.7,2.4c0.8,1.8,3.1,2.5,5,2.5
				c1.6,0,3.2-0.2,4.7-0.6c2.6-2.8,6.6-4.8,10.5-4.7c0.5,0,0.9,0.1,1.3,0.3c3.6-2.1,6.6-5.2,8.6-8.8c2.4-4.2,3.9-9.5,8.3-11.3
				c5.3-2.2,11.3,2.2,17,1.2c1.5-0.3,3.2-0.9,4.6-0.2c1.5,0.8,1.8,2.8,2.5,4.4c2.2,4.9,8.9,5.4,14.3,5.1c4.4-0.2,9.2-0.6,12.7-3.2
				c1.3-1,2.7-2.4,4.4-2.1c2,1.8,0.6,5.4,2,7.7c1.1,1.9,3.6,2.3,5.5,3.5c2.8,1.8,4,5.3,6.3,7.7c3.4,3.5,8.8,4.3,13.7,3.9
				c7.5-0.7,14.7-3.9,20.3-8.9C227.8,455.8,227.7,455.7,227.7,455.7z"/>
		</g>
		<path class="st0" d="M391.4,611c-0.1-1.3,1.6-2.1,2.9-2c1.3,0.1,2.7,0.6,4,0.1c3.5-1.3,1.5-7.5,4.6-9.6c1.5-1,3.5-0.5,5.3-0.3
			c3,0.4,6.4-0.1,8.4-2.4c1-1.2,1.5-2.8,2.5-4.2c3.9-5.4,14.2-4.6,15.7-11.1c0.7-3.1-0.5-7.5,2.5-8.6c0.9-0.3,1.9-0.1,2.9,0
			c3.7,0.3,7.5-1.8,8.9-5.1c1.4-3.4-0.2-7.8-3.5-9.2c-1.6-0.7-3.4-0.7-5-1.5c-2-1.1-3.1-3.3-4.7-5c-4-4.3-11-4.3-15.5-8.1
			c-0.8-0.7-1.6-1.8-1.3-2.8c0.2-0.7,0.9-1.2,1.4-1.8c1.8-1.7,2.9-4.2,2.6-6.7c-0.3-2.5-2.3-4.7-4.7-5.1c-1.4-0.2-2.9,0.2-4.4,0.1
			c-4-0.2-8.3-3.7-11.6-1.5c-2.4,1.5-2.8,5.3-5.4,6.3c-1.7,0.7-3.8-0.2-5.5,0.3c-2.5,0.8-3.7,4.1-6.2,4.6c-1.7,0.4-3.3-0.6-4.8-1.4
			c-6.2-3.2-13.7-3.7-20.3-1.5c-2.9-4.8-4.6-11.6-10.6-11.6c-3.4,0-9.5-0.1-12.5,1.8c-2.2,1.4-3.8,4.4-6.5,4.2
			c-1.8-0.1-3.1-1.8-4.6-2.9c-6.4-4.7-17.2,1.3-22.9-4.2c2.3-7-1.3-14.5-4.8-21c-0.3-0.6-0.7-1.3-1.4-1.6c-1.1-0.6-2.5,0.1-3.5-0.6
			c-2.1-1.3,0.4-5.1-1.3-6.8c-1-1-2.7-0.5-4.1,0c-4.6,1.7-10.8,1.9-13.2-2.3c-1-1.9-1.4-4.6-3.5-5.1c-2.3-0.5-4.5,2.4-6.6,1.4
			c-0.7-0.3-1.2-1.1-1.7-1.7c-1-1.2-2.5-2.1-4-2.5c0.1,0.8,0.1,1.5-0.3,2.2c-1.4,2.4-5.1,0.9-7.6,2.1c-1.9,0.9-2.7,3.3-4.4,4.5
			c-1.5,1-3.4,1-4.9,1.9c-2.8,1.7-3.6,6-6.7,7.1c-1.3,0.5-2.9,0.2-4,1.1c-2.3,1.7-0.3,5.3-1,8.1c-0.3,1.4-1.3,2.5-2,3.7
			c-0.7,1.3-1.2,2.7-1.7,4c-1.8,5.2-3.7,10.4-5.5,15.6c-0.9,2.5-1.7,5.3-0.4,7.6c0.6,1.1,1.6,1.8,2.5,2.7c3,3.1,4.2,7.8,3,12
			c-0.3,0.9-0.7,2-0.2,2.9c0.6,1.2,2.3,1.2,3.3,2c2.2,1.6,0.4,5.4-2.1,6.5c-0.8,0.4-1.7,0.6-2.3,1.3c-1.1,1.2-0.7,3-0.3,4.5
			c0.5,2.4,0.8,5.1-0.4,7.3c-1.6,3-4.9,4-8.3,4.9c0.6,1.7,1.1,3.4,1.4,5.2c1,5.6,1.4,11.9,5.7,15.7c3.4,3,9,3.9,10.7,8.2
			c0.5,1.2,0.6,2.4,1,3.6c1.8,4.4,8.3,5.3,10.2,9.7c2.1,4.8-2.6,10.7-2.1,15.4c1.3-0.1,2.5,0,3.6,0.8c0.9,0.7,1.8,1.5,2.9,1.4
			c1-0.1,1.7-1.1,2.6-1.5c1.4-0.6,2.9-0.1,4.4,0.2c3.7,0.6,8-1.6,8.8-5.2c0.3-1.2,0.1-2.4,0.3-3.6c0.2-1.2,0.8-2.5,1.9-2.9
			c0.2-0.1,0.4-0.1,0.6-0.1c1,0.2,0.7,1.6,0.6,2.6c-0.1,1.5,1,2.8,2.4,3.4c1.4,0.6,2.9,0.6,4.4,0.4c0.6-0.1,1.2-0.2,1.7-0.5
			c0.7-0.5,1-1.4,1.2-2.3c0.3-1.1,0.6-2.3,0.5-3.5c-0.1-1.2-0.9-2.3-2-2.7c-0.9-0.3-2.2-0.4-2-1.3c0.1-0.3,0.3-0.5,0.5-0.7
			c1.5-0.9,3.7,0.4,3.6,2.1c1.4-0.4,2.4-1.7,2.6-3.1c0.2-1.2,0.1-3,1.4-3.2c1.2-0.1,1.6,1.6,1.5,2.8c-0.2,3.1-0.5,6.2-1.5,9.1
			c-0.3,0.8-0.7,1.7-0.7,2.6c0,0.6,0.2,1.2,0.2,1.7c0,1.2-1,2.3-1,3.6c-0.1,2.3,2.6,3.7,4.9,3.6c1.7-0.1,3.8-0.4,4.8,0.9
			c1,1.3,0.4,3.6,1.9,4.4c0.4,0.2,1,0.2,1.4,0.2c2,0,4.1-0.1,6.1-0.1c1,0,2.1,0,3.1-0.5c1-0.4,1.8-1.3,1.8-2.4
			c0-0.7-0.4-1.4-0.3-2.2c0.2-1.5,2.3-1.8,3.8-1.7c0.9,0.1,1.9,0.1,2.8,0.2c2.4,0.1,1.6,1.6,2.7,3.1c1.1,1.5,3.7,1.9,4.8,0.2
			c1.8-2.5-1-6.9,3.5-7.7c1-0.2,2.2,0.5,2.3,1.5c0,0.6-0.3,1.1-0.4,1.7c-0.2,1.5,1.3,2.8,1,4.2c-0.4,1.5-2.4,1.8-3.6,2.8
			c-3.9,3.2,1.6,6,4.5,5.7c1.6-0.2,3.1-0.7,4.7-0.9c1.9-0.2,4.1,0,5.1-1.6c1.1-1.8-0.4-4.3,0.5-6.2c0.6-1.3,2.1-2,2.4-3.3
			c0.4-1.8-1.4-4,0-5.2c0.3-0.2,0.7-0.4,0.8-0.7c0.5-0.9-0.9-1.6-1.9-1.4c-1,0.1-2.3,0.2-2.6-0.7c0.3-0.8,1.2-1.2,2-1.2
			c0.8,0,1.6,0.2,2.4,0.4c1.7,0.4,3.6,0.3,5-0.7c2.3-1.6,2.5-5.3,0.6-7.3c-2-2.1-5.3-2.1-7.6-0.7c-1.9,1.1-5.3,5.5-7.7,3.5
			c-1.2-1-0.2-3.4,0.5-4.4c1-1.6,3.1-2.4,4.9-2.4c2.5-0.1,5,0.8,7.5,1.2c1,0.1,2.2,0.1,2.7-0.7c0.5-0.7,0.3-1.6-0.2-2.3
			c-0.5-0.7-1.2-1.1-1.9-1.5c-1.4-0.8-2.7-1.6-4.1-2.4c1-1.4,3-1.9,4.6-1.2c1.1,0.5,1.8,1,3,1.3s2.5,0.3,3.4-0.5
			c0.4-0.4,0.8-0.9,1.3-1.2c0.8-0.5,1.9-0.1,2.7,0.5c0.8,0.6,1.4,1.4,2.2,1.8c0.4,0.2,1,0.4,1.1,0.9c0.2,0.9-1.1,1.3-1.9,1.7
			c-0.9,0.5-1.4,1.7-1.1,2.7c0.3,1,1.3,1.8,2.3,1.8c1.2,0,2.2-0.9,3.4-1.1c1.3-0.2,2.6,0.3,3.8-0.2c1.6-0.7,1.7-2.9,1.5-4.6
			c-0.2-2.6-0.6-5.6-2.9-7c-0.6-0.4-1.3-0.6-1.9-0.9c-1.6-0.9-2.5-3.1-1.7-4.7c0.8-1.7,3.4-2.2,4.6-0.9c1.1,1.2,0.9,3.3,2.2,4.3
			c2.1,1.7,5.5-1.5,7.8-0.2c1.5,0.9,1.6,3,2.2,4.7c1.1,3,4.9,4.7,7.9,3.5c1.4-0.6,3-1.7,4.3-1c0.5,0.3,0.9,0.8,1.3,1.2
			c1.6,1.5,4.2,1.2,6.3,0.7c0.2,0,0.5,0,0.7,0c-1.3-2.1-2.7-4.2-4-6.3C391.7,611.9,391.5,611.4,391.4,611z"/>
		<path class="st0" d="M498.5,449.6c-0.3-0.6-0.6-1.3-1.3-1.4c-0.6-0.1-1.2,0.4-1.7,0.8c-2.9,2.8-5.5,6-7.7,9.5
			c-0.9,1.4-1.8,3-3.1,4c-1.4,1-3.4,1.5-4.8,0.5c-1.2-0.8-1.6-2.4-2.2-3.7c-0.6-1.3-1.7-2.8-3.1-2.6c-0.5,0-1,0.2-1.4,0.1
			c-0.6-0.2-0.9-0.9-0.9-1.6c0.1-2,2.2-3.2,3.9-4.3c3-1.9,3.8-5.8,1.8-8.7c-1.1-1.5-2.8-2.6-3.4-4.3c-0.6-1.6-0.2-3.4-0.3-5.1
			c-0.2-2.4-1.6-4.6-2.2-7c-0.7-2.6-0.5-5.3-0.2-8c0.3-3.5,0.6-7,0.9-10.5c0.3-3.3,0.7-6.8,2.8-9.3c0.8-0.9,1.8-1.6,2.6-2.6
			c1.4-1.6,2.1-3.8,2.5-5.9c1-4.9,1-9.9,0.9-14.8c0-2.1,0-4.3-0.7-6.3c-0.7-2.2-2.2-4-3.1-6.1c-0.9-2.1-1-4.8,0.6-6.4
			c0.3-2.9,0.3-5.2,2-7.5c1.2-1.5,3-2.5,4.1-4.1c1.7-2.4,1.8-5.5,1.6-8.4c-0.2-4.5-0.5-9-2.5-13c-1.1-2.2-2.7-4.2-3.6-6.4
			c-0.7-1.8-1-3.6-1.3-5.5c-0.7-4.6-1.4-9.3-1.4-13.9c-0.1-5.2,0.2-10.3,0.5-15.4c0.1-0.9,0.1-1.9-0.2-2.8c-0.3-1.1-1.3-1.6-2.1-2.2
			c-2-1.5-3.5-3-4.2-5.4c-0.5-1.7-0.6-3.5-1.4-5c-0.4-0.8-1-1.4-1.5-2.1c-4.9,1.7-9.2,5.2-11.6,9.9c-1.8,3.5-3.4,8.2-7.3,8.6
			c-5.8,0.6-8.2-8.8-14-9.1c-3.4-0.2-6.1,2.9-9.4,3.9c-5.4,1.6-11.5-2.9-16.6-0.6c-3.1,1.3-6.6,4.9-9,2.5c-1.1-1.1-1-2.8-1.3-4.3
			c-0.7-4.1-4.4-7.4-8.5-7.7c-1.8-0.1-3.9,0.5-4.7,2.1c-0.7,1.4-0.2,3.1,0,4.7c0.6,4.2-0.8,8.5-3.7,11.6c-2.5,0.8-5.2-0.7-7.1-2.6
			c-1.6-1.5-3-3.3-4.7-4.6c-1.1,1.2-2.4,2.1-3.9,2.6c-3.3,1.2-7.8,1.2-8.9,4.5c-0.3,1-0.2,2-0.3,3c-0.6,4.5-5.3,7.1-9.5,8.8
			c-4.2,1.8-9,4.1-9.8,8.6c-0.9,4.8,3.3,10.5,0.2,14.3c-0.8,1-2,1.7-3.1,2.2c-3.1,1.4-6.5,2.3-9.9,2.7c-0.9,0.1-1.8,0.1-2.5-0.4
			c-0.8-0.6-1.1-1.7-1.4-2.7c-1-3.2-3.8-5.9-7.1-6.5c-5.7-1-8.5,5.2-13.9,6.2c-1.9,0.4-3.9-0.3-5.9-0.3c-2.3,0-9.4,2.1-11,3.9
			c-2.3,2.7-1,9.7,1.4,11.9c1,0.9,2.5,2.1,1.7,3.2c-1,1.5-2.9-0.6-4.5-1.5c-1.8-1-3.9-0.1-5.9,0.4c-2,0.5-4.7,0.2-5.2-1.7
			c-0.1,3.5-3.4,6.5-6.9,6.4c-1,0-1.9-0.3-2.8,0.1c-2.8,1.1-1.1,5.6-2.6,8.2c-1.2,2-3.9,2.2-6.2,2.7c-2.3,0.5-4.9,2.2-4.3,4.4
			c0.8,3,5.6,2.2,7.5,4.6c1,1.2,1,3,2.3,3.9c0.9,0.6,2.1,0.6,3,1.2c2.1,1.3,1.7,4.4,1.1,6.8c-1.8,7.2-2.8,14.6-3,22
			c0,2.1,0,4.3-0.8,6.2c-0.9,2.2-2.9,4-3.6,6.3c-0.7,2.3,1.4,5.6,3.6,4.5c0.9-0.4,1.4-1.3,2.1-1.9c1.4-1.1,3.4-0.9,4.9,0
			c1.5,0.9,2.6,2.2,3.7,3.6c1,1.2,2.3,2.5,3.9,2.4c1.7-0.1,2.9-1.9,4.6-2c2.1-0.2,3.6,2.1,4.3,4.1c0.6,2.1,1.2,4.5,3.1,5.4
			c-0.9,1.9-3.1,3-5.1,2.7c-1.2-0.2-2.5-0.9-3.5-0.2c-1.2,0.8-0.8,2.5-0.4,3.9c0.4,1.7,0.6,3.4,0.1,5.1c-0.6,1.9-2.1,3.5-2.9,5.4
			c-0.9,2.1-1,4.4-1.5,6.6s-2,4.4-4.2,4.8c-0.9,0.2-1.9,0-2.8,0.3c-0.8,0.3-1.4,0.9-2,1.5c-1.5,1.6-2.8,3.2-4,5
			c1.4,1.3,2.7,2.7,3.6,4.4c1.4,2.6,1.4,6.2-0.6,8.3c-1.1,1.1-2.6,1.8-3.1,3.2c-0.5,1.2,0,2.6,0.1,3.9c1.5,0.4,3,1.2,4,2.5
			c0.5,0.6,1,1.3,1.7,1.7c2.1,1,4.4-1.9,6.6-1.4c2.1,0.5,2.5,3.2,3.5,5.1c2.4,4.3,8.6,4,13.2,2.3c1.3-0.5,3-1,4.1,0
			c1.8,1.7-0.7,5.5,1.3,6.8c1,0.6,2.5,0,3.5,0.6c0.6,0.3,1,1,1.4,1.6c3.5,6.5,7.1,14,4.8,21c5.8,5.5,16.5-0.6,22.9,4.2
			c1.5,1.1,2.8,2.8,4.6,2.9c2.6,0.2,4.2-2.8,6.5-4.2c3-1.9,9.1-1.8,12.5-1.8c6,0.1,7.7,6.9,10.6,11.6c6.6-2.2,14.1-1.7,20.3,1.5
			c1.5,0.8,3.2,1.7,4.8,1.4c2.6-0.5,3.7-3.8,6.2-4.6c1.8-0.6,3.8,0.3,5.5-0.3c2.6-1,3.1-4.7,5.4-6.3c3.4-2.2,7.6,1.4,11.6,1.5
			c1.5,0.1,2.9-0.4,4.4-0.1c0.7,0.1,1.4,0.4,2,0.8c1.3-1.4,3-2.4,4.9-2.8c0.9-0.2,1.9-0.2,2.6-0.8c1.7-1.3,0.9-3.9,1-5.9
			c0.2-3.2,2.8-5.8,5.8-6.9c3-1.1,6.2-1,9.4-0.9c4.4,0.2,9.8,1.1,11.3,5.3c0.5,1.5,0.4,3.1,1.3,4.4c1.2,1.7,3.6,2,5.6,1.5
			c2-0.5,3.8-1.6,5.7-2.2c2.7-0.8,5.7-0.6,8.5-0.1c2.1,0.4,4.2,0.9,6.3,1.6c0.2-0.5,0.5-1.1,0.7-1.6c1.3-3,2.2-6.2,3.1-9.4
			c1.8-6.6,3.6-13.1,5.5-19.7c0.8-3.1,1.7-6.2,1.4-9.4c-0.1-1.3-0.4-2.6-0.3-3.8c0.2-3.7,3.6-6.7,3.7-10.5c0-1-0.1-2.2,0.5-3
			c0.4-0.5,1-0.7,1.5-1.1c0.9-0.7,1.2-1.9,1.4-3C500.5,456.8,500,453,498.5,449.6z"/>
		<g>
			<path class="st0" d="M455.9,568.4c-1.8-1.4-4.2-1.4-6.5-1.8c-0.1,0.4-0.2,0.9-0.4,1.3c-1.4,3.4-5.2,5.4-8.9,5.1
				c-1-0.1-2-0.3-2.9,0c-3,1.1-1.7,5.5-2.5,8.6c-1.6,6.4-11.9,5.7-15.7,11.1c-0.9,1.3-1.4,2.9-2.5,4.2c-1.9,2.3-5.4,2.8-8.4,2.4
				c-1.8-0.3-3.8-0.8-5.3,0.3c-3.1,2.1-1.1,8.3-4.6,9.6c-1.3,0.5-2.7,0-4-0.1c-1.3-0.1-3,0.7-2.9,2c0,0.5,0.3,0.9,0.6,1.3
				c1.3,2.1,2.7,4.2,4,6.3c1.6-0.1,2.9,0.6,4.2,1.6c1.5-0.7,0.2-3.7,1.7-4.3c0.8-0.3,1.7,0.4,1.9,1.3c0.2,0.8,0.1,1.7,0.2,2.6
				c0.1,0.9,0.7,1.8,1.6,1.8c1.6,0,1.6-2.8,3.1-3.3c1.1-0.4,2.2,0.6,2.5,1.7c0.3,1.1,0.2,2.3,0.4,3.4c0.5,1.9,2.3,3.4,4.3,3.4
				c2,0,3.9-1.4,4.4-3.3c0.4-1.5,0.4-3.6,1.9-4c1.2-0.3,2.2,0.9,2.9,2c0.7,1.1,1.8,2.2,3,1.8c1.3-0.5,1.1-2.5,0.3-3.5
				c-0.9-1.1-2.2-1.7-3-2.8s-0.4-3.2,1-3.2c0.7,0,1.4,0.6,1.9,1.1c1.3,1.3,3,2.3,4.9,2.3c1.8,0,3.7-1.6,3.5-3.4
				c-0.1-0.7-0.5-1.5-0.1-2.1c0.3-0.4,0.8-0.6,1.3-0.7c3-0.9,3.4-3.6,6.2-4.6c1.5-0.6,3.1-0.8,4.5-1.7c2.2-1.5,3.1-4.3,3.8-6.8
				c1.3-4.6,2.6-9.4,2.1-14.1c-0.1-0.8-0.2-1.7,0-2.5c0.2-0.8,0.8-1.6,1.6-1.7c0.6-0.1,1.1,0.1,1.7,0.3c0.1,0,0.3,0,0.4,0
				c-0.2-1.2-0.2-2.5-0.2-3.7C458.2,573.2,458,570.1,455.9,568.4z"/>
			<path class="st0" d="M484,529.5c-0.3-0.3-0.7-0.5-1.1-0.8c-1.1-1-1.4-2.7-1.2-4.2c0.1-0.9,0.5-1.8,0.8-2.7
				c-2.1-0.7-4.1-1.2-6.3-1.6c-2.8-0.5-5.8-0.7-8.5,0.1c-2,0.6-3.7,1.7-5.7,2.2c-2,0.5-4.4,0.2-5.6-1.5c-0.9-1.3-0.8-2.9-1.3-4.4
				c-1.5-4.2-6.8-5.1-11.3-5.3c-3.2-0.1-6.4-0.2-9.4,0.9c-3,1.1-5.6,3.7-5.8,6.9c-0.1,2.1,0.7,4.7-1,5.9c-0.7,0.6-1.7,0.6-2.6,0.8
				c-1.9,0.4-3.6,1.4-4.9,2.8c1.5,0.9,2.5,2.6,2.8,4.3c0.3,2.5-0.8,5-2.6,6.7c-0.6,0.5-1.2,1-1.4,1.8c-0.3,1.1,0.5,2.1,1.3,2.8
				c4.4,3.9,11.4,3.8,15.5,8.1c1.6,1.7,2.6,3.9,4.7,5c1.5,0.8,3.4,0.8,5,1.5c3,1.2,4.5,4.8,3.9,8c2.3,0.4,4.7,0.4,6.5,1.8
				c2.1,1.7,2.4,4.8,2.4,7.6c0,1.2,0,2.5,0.2,3.7c1.7,0.2,3.5-0.5,4.5-2c0.8-1.2,1.1-2.9,2.4-3.5c0.8-0.4,1.8-0.3,2.6-0.6
				c1.1-0.5,1.8-1.7,1.9-3c0.1-1.2-0.2-2.4-0.4-3.6c-0.6-2.9-0.7-5.9-0.3-8.8c0.1-0.6,0.2-1.2,0.6-1.7c0.4-0.5,1-0.8,1.5-1.1
				c2-1.5,1.8-4.4,1.4-6.9c-0.1-0.4-0.1-0.8,0.1-1.2c0.4-0.8,1.8-0.6,2.3,0.3c0.5,0.8,0.3,1.8,0.1,2.8c-0.2,0.9-0.3,2,0.3,2.7
				c0.9,1.3,3.1,0.9,4-0.4c0.9-1.3,1-3,1-4.6c0-3.4,1.1-5.7,1.6-9.1c0.2-1.4,0.2-2.9,1-4.1c0.4-0.6,1-1,1.4-1.6
				C485.2,532.2,485,530.4,484,529.5z"/>
		</g>
		<path class="st0" d="M357.9,465.9c-1.3,0.7-2.7,1.5-4,2.2c-1.2,0.7-2.5,1.4-3.1,2.7c-1.2,2.5,0.7,6.2-1.5,8c-1.8,1.5-4.4,0-6-1.6
			c-1.6-1.6-3.7-3.5-5.9-2.8c-1,0.3-1.7,1.2-2.4,2c-1.4,1.8-2.6,4-2.8,6.3c-0.1,2.3,1.1,4.8,3.3,5.6c2.2,0.8,5.1-0.1,6.4,1.8
			c1.4,1.9-0.6,4.6-2.8,5.7c-2.2,1-4.9,1.6-6.1,3.6c-2.7,4.5,4.3,10.8,1.2,15c-1.9-1.8-5.4,0.1-6,2.7c-0.6,2.6,0.6,5.2,1.8,7.6
			c0.4,0.8,0.9,1.6,1.6,2.1c0.9,0.6,2,0.6,3,0.6c5,0.1,10.9-0.1,13.9-4.1c1.5-2,2-4.6,2.5-7.1c0.5-2.5,1.2-5.1,2.9-6.9
			c1.8-1.8,5-2.5,6.8-0.7c0.5,0.5,0.9,1.2,1.4,1.8c1.5,1.8,4.2,2.5,6.4,1.7c2.2-0.8,3.8-3.1,3.8-5.4c2.7-0.1,6-1.3,6.3-4
			c0.1-1.2-0.4-2.3-0.5-3.4c-0.2-1.8,0.4-3.6,1.1-5.3c1.4-3.9,2.9-7.8,4.3-11.7c0.8-2.2,1.6-4.8,0.5-6.9c-1-1.9-3.2-2.7-4.8-4
			c-3.1-2.6-2.2-7.3-5.9-8.9C368.6,460,361.9,463.8,357.9,465.9z"/>
		<path class="st0" d="M115.9,592.1c-3.2,1-5.5,4.2-8.8,4.4c-2.8,0.2-5.3-1.8-8.1-2.2c-2.7-0.3-5.3,0.9-7.3,2.8
			c-2,1.8-3.3,4.2-4.7,6.5c-1,1.7-2.1,3.5-2.3,5.5c-0.3,2,0.5,4.3,2.3,5.2c2.1,1.1,4.5,0.1,6.9,0.1c3.2,0,6.2,2.3,7.1,5.3
			c0.4,1.3,0.5,2.9,1.4,4c1.4,1.7,4.1,1.7,6.1,0.8c2-0.9,3.7-2.5,5.7-3.4c5-2.2,11,0.1,16.3-1.3c4.9-1.3,4.1-4.6,4.5-8.7
			c0.2-2.3,1.4-5.3-0.3-7.2c-1-1.2-3.8-0.4-5.1-2.8C126.7,596.2,122.7,589.9,115.9,592.1z"/>
	</g>
	<path class="st0" d="M111.6,185.8c-0.8-0.1-1.7-0.2-2.5-0.1c-3.2,0.6-3.9,5.2-2.3,8.1c1.5,2.9,4.3,5,5.8,7.9
		c0.8,1.6,1.2,3.4,2.1,4.9c1.8,3.1,5.4,4.6,8.7,5.8c2.3,0.9,5.2,1.7,7.1,0.1c1.6-1.4,1.9-4.1,3.9-4.7c2.7-0.8,4.3,3,6.8,4.4
		c1.3,0.8,2.9,0.8,4.4,0.5c3.4-0.6,6.3-2.6,9-4.6c1.1-0.7,2.1-1.5,3-2.4c2.1-2.3,2.9-5.8,2-8.9c-1-3-3.6-5.4-6.7-6.1
		c-1.6-0.3-3.7-0.5-4.2-2.1c-0.2-0.7,0-1.4,0.1-2.1c0.6-2.7,0.1-5.6-0.4-8.3c-0.3-1.7,0-5.8-0.6-7.1c-1.8-3.9-8.9-2.6-11.7-0.6
		c-4.3,3.1-5.5,8.9-10.1,11.8C121.6,185,116.6,186.3,111.6,185.8z"/>
</g>
<polygon class="st0" points="555.9,271.1 551.8,271.1 547.6,271.1 545.6,275.3 545.6,281.5 547.6,283.6 547.6,287.7 549.7,291.8 
	555.9,293.9 562.1,296 564.2,296 568.3,293.9 572.5,289.8 572.5,285.6 576.6,283.6 576.6,275.3 576.6,271.1 574.5,269.1 568.3,267 
	564.2,271.1 "/>
<polygon class="st0" points="582.8,316.7 580.8,318.7 582.8,322.9 584.9,324.9 589,322.9 589,316.7 589,314.6 582.8,314.6 "/>
</svg>
