<?xml version="1.0" encoding="utf-8"?>
<!-- Generator: Adobe Illustrator 22.1.0, SVG Export Plug-In . SVG Version: 6.00 Build 0)  -->
<svg version="1.1" id="Layer_1" xmlns="http://www.w3.org/2000/svg" xmlns:xlink="http://www.w3.org/1999/xlink" x="0px" y="0px"
	 viewBox="0 0 405.1 405.1" style="enable-background:new 0 0 405.1 405.1;" xml:space="preserve">
<g>
	<g>
		<path d="M366.8,83.4H38.7c-10.6,0-19.1-10.1-19.1-22.5s8.6-22.5,19.1-22.5h328.1c10.6,0,19.1,10.1,19.1,22.5
			S377.4,83.4,366.8,83.4z"/>
	</g>
	<g>
		<path d="M366.8,224.9H38.7c-10.6,0-19.1-10.1-19.1-22.5s8.6-22.5,19.1-22.5h328.1c10.6,0,19.1,10.1,19.1,22.5
			S377.4,224.9,366.8,224.9z"/>
	</g>
	<g>
		<path d="M366.8,366.5H38.7c-10.6,0-19.1-10.1-19.1-22.5s8.6-22.5,19.1-22.5h328.1c10.6,0,19.1,10.1,19.1,22.5
			S377.4,366.5,366.8,366.5z"/>
	</g>
</g>
</svg>
