<?xml version="1.0" encoding="utf-8"?>
<!-- Generator: Adobe Illustrator 22.1.0, SVG Export Plug-In . SVG Version: 6.00 Build 0)  -->
<svg version="1.1" id="Layer_1" xmlns="http://www.w3.org/2000/svg" xmlns:xlink="http://www.w3.org/1999/xlink" x="0px" y="0px"
	 viewBox="0 0 730 730" style="enable-background:new 0 0 730 730;" xml:space="preserve">
<style type="text/css">
	.st0{fill:#FFFFFF;}
</style>
<path class="st0" d="M695.8,293.7c-5.4-4.7-12.3-7.1-19.4-6.7c-7.2,0.4-13.7,3.7-18.5,9L502.7,471.9L367.5,625.1L232.4,471.9
	L77.1,296c-4.7-5.4-11.3-8.6-18.5-9c-7.2-0.4-14.1,1.9-19.4,6.7c-11.1,9.8-12.2,26.8-2.4,37.9l155.3,175.9l155.2,176
	c5.1,5.8,12.4,9.1,20.1,9.1h0c7.7,0,15-3.3,20.1-9.1l155.3-176l155.2-175.9C707.9,320.5,706.9,303.5,695.8,293.7z"/>
</svg>
